<mxfile host="Electron" modified="2024-02-27T07:09:22.458Z" agent="Mozilla/5.0 (Windows NT 10.0; Win64; x64) AppleWebKit/537.36 (KHTML, like Gecko) draw.io/23.1.5 Chrome/120.0.6099.109 Electron/28.1.0 Safari/537.36" etag="vt3b7oakQMrCz5Lii7DY" version="23.1.5" type="device">
  <diagram name="Page-1" id="KQoqryiFrZoYs7TO9lhx">
    <mxGraphModel dx="2524" dy="836" grid="1" gridSize="10" guides="1" tooltips="1" connect="1" arrows="1" fold="1" page="1" pageScale="1" pageWidth="850" pageHeight="1100" math="0" shadow="0">
      <root>
        <mxCell id="0" />
        <mxCell id="1" parent="0" />
        <mxCell id="QKt5LQErIS5qsYVif_62-36" value="" style="rounded=0;whiteSpace=wrap;html=1;" parent="1" vertex="1">
          <mxGeometry x="135" y="800" width="720" height="590" as="geometry" />
        </mxCell>
        <mxCell id="QKt5LQErIS5qsYVif_62-1" value="User" style="shape=umlActor;verticalLabelPosition=bottom;verticalAlign=top;html=1;outlineConnect=0;" parent="1" vertex="1">
          <mxGeometry x="30" y="330" width="30" height="60" as="geometry" />
        </mxCell>
        <mxCell id="QKt5LQErIS5qsYVif_62-7" value="" style="rounded=0;whiteSpace=wrap;html=1;" parent="1" vertex="1">
          <mxGeometry x="140" y="70" width="710" height="680" as="geometry" />
        </mxCell>
        <mxCell id="QKt5LQErIS5qsYVif_62-6" value="View user account detail" style="ellipse;whiteSpace=wrap;html=1;" parent="1" vertex="1">
          <mxGeometry x="190" y="320" width="120" height="80" as="geometry" />
        </mxCell>
        <mxCell id="QKt5LQErIS5qsYVif_62-11" value="Login" style="ellipse;whiteSpace=wrap;html=1;" parent="1" vertex="1">
          <mxGeometry x="400" y="180" width="120" height="80" as="geometry" />
        </mxCell>
        <mxCell id="QKt5LQErIS5qsYVif_62-17" value="" style="endArrow=open;endSize=12;dashed=1;html=1;rounded=0;exitX=0.817;exitY=0.11;exitDx=0;exitDy=0;entryX=0;entryY=0.5;entryDx=0;entryDy=0;exitPerimeter=0;" parent="1" source="QKt5LQErIS5qsYVif_62-6" target="QKt5LQErIS5qsYVif_62-11" edge="1">
          <mxGeometry width="160" relative="1" as="geometry">
            <mxPoint x="420" y="480" as="sourcePoint" />
            <mxPoint x="580" y="480" as="targetPoint" />
          </mxGeometry>
        </mxCell>
        <mxCell id="QKt5LQErIS5qsYVif_62-19" value="&amp;lt;&amp;lt;Include&amp;gt;&amp;gt;" style="edgeLabel;html=1;align=center;verticalAlign=middle;resizable=0;points=[];" parent="QKt5LQErIS5qsYVif_62-17" vertex="1" connectable="0">
          <mxGeometry x="-0.0812" y="-2" relative="1" as="geometry">
            <mxPoint as="offset" />
          </mxGeometry>
        </mxCell>
        <mxCell id="QKt5LQErIS5qsYVif_62-21" style="edgeStyle=orthogonalEdgeStyle;rounded=0;orthogonalLoop=1;jettySize=auto;html=1;exitX=0.5;exitY=0.5;exitDx=0;exitDy=0;exitPerimeter=0;entryX=0;entryY=0.5;entryDx=0;entryDy=0;" parent="1" source="QKt5LQErIS5qsYVif_62-1" target="QKt5LQErIS5qsYVif_62-6" edge="1">
          <mxGeometry relative="1" as="geometry" />
        </mxCell>
        <mxCell id="QKt5LQErIS5qsYVif_62-22" value="Login By Facebook" style="ellipse;whiteSpace=wrap;html=1;" parent="1" vertex="1">
          <mxGeometry x="690" y="90" width="100" height="60" as="geometry" />
        </mxCell>
        <mxCell id="QKt5LQErIS5qsYVif_62-23" value="Login By Gmail" style="ellipse;whiteSpace=wrap;html=1;" parent="1" vertex="1">
          <mxGeometry x="690" y="270" width="100" height="60" as="geometry" />
        </mxCell>
        <mxCell id="QKt5LQErIS5qsYVif_62-25" value="" style="endArrow=block;endSize=16;endFill=0;html=1;rounded=0;exitX=0;exitY=0.5;exitDx=0;exitDy=0;entryX=0.955;entryY=0.283;entryDx=0;entryDy=0;entryPerimeter=0;" parent="1" source="QKt5LQErIS5qsYVif_62-22" target="QKt5LQErIS5qsYVif_62-11" edge="1">
          <mxGeometry width="160" relative="1" as="geometry">
            <mxPoint x="420" y="410" as="sourcePoint" />
            <mxPoint x="580" y="410" as="targetPoint" />
          </mxGeometry>
        </mxCell>
        <mxCell id="QKt5LQErIS5qsYVif_62-26" value="" style="endArrow=block;endSize=16;endFill=0;html=1;rounded=0;exitX=0;exitY=0.5;exitDx=0;exitDy=0;entryX=0.961;entryY=0.697;entryDx=0;entryDy=0;entryPerimeter=0;" parent="1" source="QKt5LQErIS5qsYVif_62-23" target="QKt5LQErIS5qsYVif_62-11" edge="1">
          <mxGeometry width="160" relative="1" as="geometry">
            <mxPoint x="690" y="260" as="sourcePoint" />
            <mxPoint x="540" y="360" as="targetPoint" />
          </mxGeometry>
        </mxCell>
        <mxCell id="QKt5LQErIS5qsYVif_62-27" value="Change Infor Account" style="ellipse;whiteSpace=wrap;html=1;" parent="1" vertex="1">
          <mxGeometry x="565" y="360" width="100" height="60" as="geometry" />
        </mxCell>
        <mxCell id="QKt5LQErIS5qsYVif_62-28" value="&amp;lt;&amp;lt;Extend&amp;gt;&amp;gt;" style="endArrow=open;endSize=12;dashed=1;html=1;rounded=0;exitX=0;exitY=0.5;exitDx=0;exitDy=0;entryX=0.949;entryY=0.3;entryDx=0;entryDy=0;entryPerimeter=0;" parent="1" source="QKt5LQErIS5qsYVif_62-27" target="QKt5LQErIS5qsYVif_62-6" edge="1">
          <mxGeometry width="160" relative="1" as="geometry">
            <mxPoint x="370" y="500" as="sourcePoint" />
            <mxPoint x="530" y="500" as="targetPoint" />
          </mxGeometry>
        </mxCell>
        <mxCell id="QKt5LQErIS5qsYVif_62-30" value="Change Password" style="ellipse;whiteSpace=wrap;html=1;" parent="1" vertex="1">
          <mxGeometry x="565" y="470" width="100" height="60" as="geometry" />
        </mxCell>
        <mxCell id="QKt5LQErIS5qsYVif_62-32" value="&amp;lt;&amp;lt;Extend&amp;gt;&amp;gt;" style="endArrow=open;endSize=12;dashed=1;html=1;rounded=0;exitX=0;exitY=0.5;exitDx=0;exitDy=0;entryX=1;entryY=0.625;entryDx=0;entryDy=0;entryPerimeter=0;" parent="1" source="QKt5LQErIS5qsYVif_62-30" target="QKt5LQErIS5qsYVif_62-6" edge="1">
          <mxGeometry width="160" relative="1" as="geometry">
            <mxPoint x="370" y="570" as="sourcePoint" />
            <mxPoint x="530" y="570" as="targetPoint" />
          </mxGeometry>
        </mxCell>
        <mxCell id="QKt5LQErIS5qsYVif_62-33" value="Login By Account" style="ellipse;whiteSpace=wrap;html=1;" parent="1" vertex="1">
          <mxGeometry x="690" y="200" width="100" height="60" as="geometry" />
        </mxCell>
        <mxCell id="QKt5LQErIS5qsYVif_62-34" value="" style="endArrow=block;endSize=16;endFill=0;html=1;rounded=0;exitX=0;exitY=0.5;exitDx=0;exitDy=0;entryX=1;entryY=0.5;entryDx=0;entryDy=0;" parent="1" source="QKt5LQErIS5qsYVif_62-33" target="QKt5LQErIS5qsYVif_62-11" edge="1">
          <mxGeometry width="160" relative="1" as="geometry">
            <mxPoint x="420" y="480" as="sourcePoint" />
            <mxPoint x="580" y="480" as="targetPoint" />
          </mxGeometry>
        </mxCell>
        <mxCell id="QKt5LQErIS5qsYVif_62-39" style="edgeStyle=orthogonalEdgeStyle;rounded=0;orthogonalLoop=1;jettySize=auto;html=1;exitX=0.5;exitY=0.5;exitDx=0;exitDy=0;exitPerimeter=0;entryX=0;entryY=0.5;entryDx=0;entryDy=0;" parent="1" source="QKt5LQErIS5qsYVif_62-35" target="QKt5LQErIS5qsYVif_62-38" edge="1">
          <mxGeometry relative="1" as="geometry" />
        </mxCell>
        <mxCell id="QKt5LQErIS5qsYVif_62-35" value="Actor" style="shape=umlActor;verticalLabelPosition=bottom;verticalAlign=top;html=1;outlineConnect=0;" parent="1" vertex="1">
          <mxGeometry x="38" y="1065" width="30" height="60" as="geometry" />
        </mxCell>
        <mxCell id="QKt5LQErIS5qsYVif_62-37" style="edgeStyle=orthogonalEdgeStyle;rounded=0;orthogonalLoop=1;jettySize=auto;html=1;exitX=0.5;exitY=1;exitDx=0;exitDy=0;" parent="1" source="QKt5LQErIS5qsYVif_62-36" target="QKt5LQErIS5qsYVif_62-36" edge="1">
          <mxGeometry relative="1" as="geometry" />
        </mxCell>
        <mxCell id="QKt5LQErIS5qsYVif_62-38" value="Register" style="ellipse;whiteSpace=wrap;html=1;" parent="1" vertex="1">
          <mxGeometry x="203" y="1055" width="120" height="80" as="geometry" />
        </mxCell>
        <mxCell id="QKt5LQErIS5qsYVif_62-40" value="Login By Gmail" style="ellipse;whiteSpace=wrap;html=1;" parent="1" vertex="1">
          <mxGeometry x="630" y="880" width="90" height="60" as="geometry" />
        </mxCell>
        <mxCell id="QKt5LQErIS5qsYVif_62-42" value="Login By Facebook" style="ellipse;whiteSpace=wrap;html=1;" parent="1" vertex="1">
          <mxGeometry x="630" y="1005" width="90" height="60" as="geometry" />
        </mxCell>
        <mxCell id="QKt5LQErIS5qsYVif_62-44" value="Resgister By Account&amp;nbsp;" style="ellipse;whiteSpace=wrap;html=1;" parent="1" vertex="1">
          <mxGeometry x="400" y="1190" width="90" height="60" as="geometry" />
        </mxCell>
        <mxCell id="QKt5LQErIS5qsYVif_62-48" value="&amp;lt;&amp;lt;Extend&amp;gt;&amp;gt;" style="endArrow=open;endSize=12;dashed=1;html=1;rounded=0;exitX=0;exitY=0.5;exitDx=0;exitDy=0;entryX=0.92;entryY=0.774;entryDx=0;entryDy=0;entryPerimeter=0;" parent="1" source="QKt5LQErIS5qsYVif_62-44" target="QKt5LQErIS5qsYVif_62-38" edge="1">
          <mxGeometry width="160" relative="1" as="geometry">
            <mxPoint x="470" y="1060" as="sourcePoint" />
            <mxPoint x="630" y="1060" as="targetPoint" />
          </mxGeometry>
        </mxCell>
        <mxCell id="QKt5LQErIS5qsYVif_62-49" value="&amp;lt;&amp;lt;Extend&amp;gt;&amp;gt;" style="endArrow=open;endSize=12;dashed=1;html=1;rounded=0;exitX=0;exitY=0.5;exitDx=0;exitDy=0;entryX=1;entryY=0.5;entryDx=0;entryDy=0;" parent="1" source="QKt5LQErIS5qsYVif_62-40" target="QKt5LQErIS5qsYVif_62-71" edge="1">
          <mxGeometry width="160" relative="1" as="geometry">
            <mxPoint x="320" y="990" as="sourcePoint" />
            <mxPoint x="312" y="1052" as="targetPoint" />
          </mxGeometry>
        </mxCell>
        <mxCell id="QKt5LQErIS5qsYVif_62-51" value="&amp;lt;&amp;lt;Extend&amp;gt;&amp;gt;" style="endArrow=open;endSize=12;dashed=1;html=1;rounded=0;exitX=0;exitY=0.5;exitDx=0;exitDy=0;entryX=1;entryY=1;entryDx=0;entryDy=0;" parent="1" source="QKt5LQErIS5qsYVif_62-42" target="QKt5LQErIS5qsYVif_62-71" edge="1">
          <mxGeometry width="160" relative="1" as="geometry">
            <mxPoint x="340" y="1030" as="sourcePoint" />
            <mxPoint x="500" y="1030" as="targetPoint" />
          </mxGeometry>
        </mxCell>
        <mxCell id="QKt5LQErIS5qsYVif_62-54" value="Info Ticket" style="ellipse;whiteSpace=wrap;html=1;" parent="1" vertex="1">
          <mxGeometry x="190" y="490" width="120" height="80" as="geometry" />
        </mxCell>
        <mxCell id="QKt5LQErIS5qsYVif_62-56" value="&amp;lt;&amp;lt;Extend&amp;gt;&amp;gt;" style="endArrow=open;endSize=12;dashed=1;html=1;rounded=0;exitX=0.5;exitY=0;exitDx=0;exitDy=0;entryX=0.5;entryY=1;entryDx=0;entryDy=0;" parent="1" source="QKt5LQErIS5qsYVif_62-54" target="QKt5LQErIS5qsYVif_62-6" edge="1">
          <mxGeometry width="160" relative="1" as="geometry">
            <mxPoint x="350" y="590" as="sourcePoint" />
            <mxPoint x="510" y="590" as="targetPoint" />
          </mxGeometry>
        </mxCell>
        <mxCell id="QKt5LQErIS5qsYVif_62-57" value="Check History Ticket" style="ellipse;whiteSpace=wrap;html=1;" parent="1" vertex="1">
          <mxGeometry x="190" y="660" width="120" height="80" as="geometry" />
        </mxCell>
        <mxCell id="QKt5LQErIS5qsYVif_62-59" value="Cancelled tickets" style="ellipse;whiteSpace=wrap;html=1;" parent="1" vertex="1">
          <mxGeometry x="520" y="560" width="120" height="80" as="geometry" />
        </mxCell>
        <mxCell id="QKt5LQErIS5qsYVif_62-61" value="Booked Tickets" style="ellipse;whiteSpace=wrap;html=1;" parent="1" vertex="1">
          <mxGeometry x="365" y="670" width="120" height="80" as="geometry" />
        </mxCell>
        <mxCell id="QKt5LQErIS5qsYVif_62-62" value="&amp;lt;&amp;lt;Extend&amp;gt;&amp;gt;" style="endArrow=open;endSize=12;dashed=1;html=1;rounded=0;exitX=0;exitY=0.5;exitDx=0;exitDy=0;entryX=1;entryY=0.5;entryDx=0;entryDy=0;" parent="1" source="QKt5LQErIS5qsYVif_62-59" target="QKt5LQErIS5qsYVif_62-54" edge="1">
          <mxGeometry width="160" relative="1" as="geometry">
            <mxPoint x="620" y="600" as="sourcePoint" />
            <mxPoint x="780" y="600" as="targetPoint" />
          </mxGeometry>
        </mxCell>
        <mxCell id="QKt5LQErIS5qsYVif_62-63" value="&amp;lt;&amp;lt;Extend&amp;gt;&amp;gt;" style="endArrow=open;endSize=12;dashed=1;html=1;rounded=0;exitX=0;exitY=0;exitDx=0;exitDy=0;entryX=1;entryY=1;entryDx=0;entryDy=0;" parent="1" source="QKt5LQErIS5qsYVif_62-61" target="QKt5LQErIS5qsYVif_62-54" edge="1">
          <mxGeometry width="160" relative="1" as="geometry">
            <mxPoint x="550" y="650" as="sourcePoint" />
            <mxPoint x="710" y="650" as="targetPoint" />
          </mxGeometry>
        </mxCell>
        <mxCell id="QKt5LQErIS5qsYVif_62-65" value="&amp;lt;&amp;lt;Extend&amp;gt;&amp;gt;" style="endArrow=open;endSize=12;dashed=1;html=1;rounded=0;exitX=0.5;exitY=0;exitDx=0;exitDy=0;entryX=0.5;entryY=1;entryDx=0;entryDy=0;" parent="1" source="QKt5LQErIS5qsYVif_62-57" target="QKt5LQErIS5qsYVif_62-54" edge="1">
          <mxGeometry width="160" relative="1" as="geometry">
            <mxPoint x="350" y="490" as="sourcePoint" />
            <mxPoint x="510" y="490" as="targetPoint" />
          </mxGeometry>
        </mxCell>
        <mxCell id="QKt5LQErIS5qsYVif_62-67" value="Input User Infor" style="ellipse;whiteSpace=wrap;html=1;" parent="1" vertex="1">
          <mxGeometry x="743" y="1190" width="100" height="70" as="geometry" />
        </mxCell>
        <mxCell id="QKt5LQErIS5qsYVif_62-68" value="&amp;lt;&amp;lt;Include&amp;gt;&amp;gt;" style="endArrow=open;endSize=12;dashed=1;html=1;rounded=0;exitX=1;exitY=0.5;exitDx=0;exitDy=0;entryX=0;entryY=0.5;entryDx=0;entryDy=0;" parent="1" source="QKt5LQErIS5qsYVif_62-44" target="QKt5LQErIS5qsYVif_62-67" edge="1">
          <mxGeometry width="160" relative="1" as="geometry">
            <mxPoint x="170" y="880" as="sourcePoint" />
            <mxPoint x="330" y="880" as="targetPoint" />
          </mxGeometry>
        </mxCell>
        <mxCell id="QKt5LQErIS5qsYVif_62-71" value="Login" style="ellipse;whiteSpace=wrap;html=1;" parent="1" vertex="1">
          <mxGeometry x="353" y="920" width="120" height="80" as="geometry" />
        </mxCell>
        <mxCell id="QKt5LQErIS5qsYVif_62-74" value="&amp;lt;&amp;lt;Extend&amp;gt;&amp;gt;" style="endArrow=open;endSize=12;dashed=1;html=1;rounded=0;exitX=0;exitY=1;exitDx=0;exitDy=0;entryX=0.775;entryY=0.088;entryDx=0;entryDy=0;entryPerimeter=0;" parent="1" source="QKt5LQErIS5qsYVif_62-71" target="QKt5LQErIS5qsYVif_62-38" edge="1">
          <mxGeometry width="160" relative="1" as="geometry">
            <mxPoint x="200" y="920" as="sourcePoint" />
            <mxPoint x="360" y="920" as="targetPoint" />
          </mxGeometry>
        </mxCell>
        <mxCell id="QKt5LQErIS5qsYVif_62-75" value="User" style="shape=umlActor;verticalLabelPosition=bottom;verticalAlign=top;html=1;outlineConnect=0;" parent="1" vertex="1">
          <mxGeometry x="30" y="1610" width="30" height="60" as="geometry" />
        </mxCell>
        <mxCell id="QKt5LQErIS5qsYVif_62-76" value="View" style="rounded=0;whiteSpace=wrap;html=1;" parent="1" vertex="1">
          <mxGeometry x="190" y="1610" width="100" height="50" as="geometry" />
        </mxCell>
        <mxCell id="QKt5LQErIS5qsYVif_62-77" value=":AccountController" style="rounded=0;whiteSpace=wrap;html=1;" parent="1" vertex="1">
          <mxGeometry x="350" y="1615" width="125" height="50" as="geometry" />
        </mxCell>
        <mxCell id="QKt5LQErIS5qsYVif_62-78" value=":AccountService" style="rounded=0;whiteSpace=wrap;html=1;" parent="1" vertex="1">
          <mxGeometry x="530" y="1620" width="120" height="50" as="geometry" />
        </mxCell>
        <mxCell id="QKt5LQErIS5qsYVif_62-79" value=":AccountRepository" style="rounded=0;whiteSpace=wrap;html=1;" parent="1" vertex="1">
          <mxGeometry x="730" y="1625" width="120" height="50" as="geometry" />
        </mxCell>
        <mxCell id="QKt5LQErIS5qsYVif_62-80" value="DataBase" style="rounded=0;whiteSpace=wrap;html=1;" parent="1" vertex="1">
          <mxGeometry x="900" y="1625" width="120" height="50" as="geometry" />
        </mxCell>
        <mxCell id="QKt5LQErIS5qsYVif_62-84" value="" style="endArrow=none;dashed=1;html=1;rounded=0;" parent="1" edge="1">
          <mxGeometry width="50" height="50" relative="1" as="geometry">
            <mxPoint x="45" y="2110" as="sourcePoint" />
            <mxPoint x="44.76" y="1690" as="targetPoint" />
          </mxGeometry>
        </mxCell>
        <mxCell id="QKt5LQErIS5qsYVif_62-85" value="" style="endArrow=none;dashed=1;html=1;rounded=0;entryX=0.5;entryY=1;entryDx=0;entryDy=0;exitX=0.5;exitY=0;exitDx=0;exitDy=0;" parent="1" source="QKt5LQErIS5qsYVif_62-88" target="QKt5LQErIS5qsYVif_62-76" edge="1">
          <mxGeometry width="50" height="50" relative="1" as="geometry">
            <mxPoint x="170" y="1700" as="sourcePoint" />
            <mxPoint x="180" y="1690" as="targetPoint" />
          </mxGeometry>
        </mxCell>
        <mxCell id="QKt5LQErIS5qsYVif_62-88" value="" style="rounded=0;whiteSpace=wrap;html=1;" parent="1" vertex="1">
          <mxGeometry x="230" y="1698" width="20" height="382" as="geometry" />
        </mxCell>
        <mxCell id="QKt5LQErIS5qsYVif_62-89" value="" style="rounded=0;whiteSpace=wrap;html=1;" parent="1" vertex="1">
          <mxGeometry x="405" y="1728" width="20" height="280" as="geometry" />
        </mxCell>
        <mxCell id="QKt5LQErIS5qsYVif_62-90" value="" style="rounded=0;whiteSpace=wrap;html=1;" parent="1" vertex="1">
          <mxGeometry x="580" y="1748" width="20" height="240" as="geometry" />
        </mxCell>
        <mxCell id="QKt5LQErIS5qsYVif_62-92" value="" style="rounded=0;whiteSpace=wrap;html=1;" parent="1" vertex="1">
          <mxGeometry x="780" y="1865" width="20" height="130" as="geometry" />
        </mxCell>
        <mxCell id="QKt5LQErIS5qsYVif_62-94" value="" style="rounded=0;whiteSpace=wrap;html=1;" parent="1" vertex="1">
          <mxGeometry x="950" y="1898" width="20" height="90" as="geometry" />
        </mxCell>
        <mxCell id="QKt5LQErIS5qsYVif_62-95" value="" style="endArrow=classic;html=1;rounded=0;entryX=0.083;entryY=0.075;entryDx=0;entryDy=0;entryPerimeter=0;" parent="1" target="QKt5LQErIS5qsYVif_62-88" edge="1">
          <mxGeometry width="50" height="50" relative="1" as="geometry">
            <mxPoint x="50" y="1726" as="sourcePoint" />
            <mxPoint x="330" y="1730" as="targetPoint" />
          </mxGeometry>
        </mxCell>
        <mxCell id="QKt5LQErIS5qsYVif_62-97" value="1.Create a new account" style="text;html=1;align=center;verticalAlign=middle;resizable=0;points=[];autosize=1;strokeColor=none;fillColor=none;" parent="1" vertex="1">
          <mxGeometry x="60" y="1698" width="150" height="30" as="geometry" />
        </mxCell>
        <mxCell id="QKt5LQErIS5qsYVif_62-99" value="" style="endArrow=classic;html=1;rounded=0;entryX=0.083;entryY=0.075;entryDx=0;entryDy=0;entryPerimeter=0;" parent="1" edge="1">
          <mxGeometry width="50" height="50" relative="1" as="geometry">
            <mxPoint x="48" y="1762" as="sourcePoint" />
            <mxPoint x="230" y="1760" as="targetPoint" />
          </mxGeometry>
        </mxCell>
        <mxCell id="QKt5LQErIS5qsYVif_62-100" value="2.Click Button Register" style="text;html=1;align=center;verticalAlign=middle;resizable=0;points=[];autosize=1;strokeColor=none;fillColor=none;" parent="1" vertex="1">
          <mxGeometry x="60" y="1728" width="150" height="30" as="geometry" />
        </mxCell>
        <mxCell id="QKt5LQErIS5qsYVif_62-102" value="" style="endArrow=none;dashed=1;html=1;rounded=0;exitX=0.5;exitY=0;exitDx=0;exitDy=0;entryX=0.516;entryY=0.961;entryDx=0;entryDy=0;entryPerimeter=0;" parent="1" source="QKt5LQErIS5qsYVif_62-89" target="QKt5LQErIS5qsYVif_62-77" edge="1">
          <mxGeometry width="50" height="50" relative="1" as="geometry">
            <mxPoint x="410" y="1728" as="sourcePoint" />
            <mxPoint x="413" y="1665" as="targetPoint" />
            <Array as="points">
              <mxPoint x="415" y="1700" />
            </Array>
          </mxGeometry>
        </mxCell>
        <mxCell id="QKt5LQErIS5qsYVif_62-104" value="" style="endArrow=none;dashed=1;html=1;rounded=0;exitX=0.5;exitY=0;exitDx=0;exitDy=0;entryX=0.5;entryY=1;entryDx=0;entryDy=0;" parent="1" source="QKt5LQErIS5qsYVif_62-90" target="QKt5LQErIS5qsYVif_62-78" edge="1">
          <mxGeometry width="50" height="50" relative="1" as="geometry">
            <mxPoint x="589.67" y="1740" as="sourcePoint" />
            <mxPoint x="589.67" y="1675" as="targetPoint" />
            <Array as="points">
              <mxPoint x="589.67" y="1712" />
            </Array>
          </mxGeometry>
        </mxCell>
        <mxCell id="QKt5LQErIS5qsYVif_62-106" value="" style="endArrow=none;dashed=1;html=1;rounded=0;exitX=0.5;exitY=0;exitDx=0;exitDy=0;entryX=0.5;entryY=1;entryDx=0;entryDy=0;" parent="1" edge="1">
          <mxGeometry width="50" height="50" relative="1" as="geometry">
            <mxPoint x="790.17" y="1830" as="sourcePoint" />
            <mxPoint x="790.17" y="1675" as="targetPoint" />
            <Array as="points" />
          </mxGeometry>
        </mxCell>
        <mxCell id="QKt5LQErIS5qsYVif_62-107" value="" style="endArrow=none;dashed=1;html=1;rounded=0;exitX=0.5;exitY=0;exitDx=0;exitDy=0;entryX=0.5;entryY=1;entryDx=0;entryDy=0;" parent="1" source="QKt5LQErIS5qsYVif_62-94" target="QKt5LQErIS5qsYVif_62-80" edge="1">
          <mxGeometry width="50" height="50" relative="1" as="geometry">
            <mxPoint x="990" y="1845" as="sourcePoint" />
            <mxPoint x="990" y="1690" as="targetPoint" />
            <Array as="points" />
          </mxGeometry>
        </mxCell>
        <mxCell id="QKt5LQErIS5qsYVif_62-109" value="3.saveAccount()" style="text;html=1;align=center;verticalAlign=middle;resizable=0;points=[];autosize=1;strokeColor=none;fillColor=none;" parent="1" vertex="1">
          <mxGeometry x="270" y="1758" width="110" height="30" as="geometry" />
        </mxCell>
        <mxCell id="QKt5LQErIS5qsYVif_62-117" value="" style="endArrow=none;dashed=1;html=1;rounded=0;entryX=0.5;entryY=1;entryDx=0;entryDy=0;exitX=0.5;exitY=0;exitDx=0;exitDy=0;" parent="1" edge="1">
          <mxGeometry width="50" height="50" relative="1" as="geometry">
            <mxPoint x="239.44" y="2118" as="sourcePoint" />
            <mxPoint x="239.44" y="2080" as="targetPoint" />
          </mxGeometry>
        </mxCell>
        <mxCell id="QKt5LQErIS5qsYVif_62-128" value="[Invalid Info}" style="text;html=1;align=center;verticalAlign=middle;resizable=0;points=[];autosize=1;strokeColor=none;fillColor=none;" parent="1" vertex="1">
          <mxGeometry x="10" y="1860" width="90" height="30" as="geometry" />
        </mxCell>
        <mxCell id="QKt5LQErIS5qsYVif_62-129" value="[Valid Info]" style="text;html=1;align=center;verticalAlign=middle;resizable=0;points=[];autosize=1;strokeColor=none;fillColor=none;" parent="1" vertex="1">
          <mxGeometry x="13" y="1915" width="80" height="30" as="geometry" />
        </mxCell>
        <mxCell id="QKt5LQErIS5qsYVif_62-130" value="" style="endArrow=none;dashed=1;html=1;rounded=0;entryX=1.001;entryY=0.366;entryDx=0;entryDy=0;entryPerimeter=0;" parent="1" source="WL6VqEPVw5pHVpMwfatw-42" target="QKt5LQErIS5qsYVif_62-135" edge="1">
          <mxGeometry width="50" height="50" relative="1" as="geometry">
            <mxPoint x="-60" y="1900" as="sourcePoint" />
            <mxPoint x="1086.6666666666667" y="1900" as="targetPoint" />
          </mxGeometry>
        </mxCell>
        <mxCell id="QKt5LQErIS5qsYVif_62-132" value="" style="endArrow=classic;html=1;rounded=0;exitX=0.964;exitY=0.243;exitDx=0;exitDy=0;entryX=0.01;entryY=0.223;entryDx=0;entryDy=0;entryPerimeter=0;exitPerimeter=0;" parent="1" source="QKt5LQErIS5qsYVif_62-88" target="QKt5LQErIS5qsYVif_62-89" edge="1">
          <mxGeometry width="50" height="50" relative="1" as="geometry">
            <mxPoint x="270" y="1840" as="sourcePoint" />
            <mxPoint x="320" y="1790" as="targetPoint" />
          </mxGeometry>
        </mxCell>
        <mxCell id="QKt5LQErIS5qsYVif_62-135" value="all validate infor user" style="shape=umlFrame;whiteSpace=wrap;html=1;pointerEvents=0;width=190;height=30;" parent="1" vertex="1">
          <mxGeometry x="-20" y="1830" width="1060" height="200" as="geometry" />
        </mxCell>
        <mxCell id="QKt5LQErIS5qsYVif_62-138" value="4 Return Invalid View" style="text;html=1;align=center;verticalAlign=middle;resizable=0;points=[];autosize=1;strokeColor=none;fillColor=none;" parent="1" vertex="1">
          <mxGeometry x="260" y="1860" width="140" height="30" as="geometry" />
        </mxCell>
        <mxCell id="QKt5LQErIS5qsYVif_62-139" value="" style="endArrow=open;endSize=12;dashed=1;html=1;rounded=0;exitX=-0.167;exitY=0.571;exitDx=0;exitDy=0;exitPerimeter=0;entryX=1;entryY=0.5;entryDx=0;entryDy=0;" parent="1" source="QKt5LQErIS5qsYVif_62-89" target="QKt5LQErIS5qsYVif_62-88" edge="1">
          <mxGeometry width="160" relative="1" as="geometry">
            <mxPoint x="270" y="1964.58" as="sourcePoint" />
            <mxPoint x="430" y="1964.58" as="targetPoint" />
          </mxGeometry>
        </mxCell>
        <mxCell id="QKt5LQErIS5qsYVif_62-142" value="" style="endArrow=classic;html=1;rounded=0;exitX=1.102;exitY=0.714;exitDx=0;exitDy=0;exitPerimeter=0;entryX=-0.05;entryY=0.437;entryDx=0;entryDy=0;entryPerimeter=0;" parent="1" source="QKt5LQErIS5qsYVif_62-90" target="QKt5LQErIS5qsYVif_62-92" edge="1">
          <mxGeometry width="50" height="50" relative="1" as="geometry">
            <mxPoint x="603" y="1928" as="sourcePoint" />
            <mxPoint x="783" y="1930" as="targetPoint" />
          </mxGeometry>
        </mxCell>
        <mxCell id="QKt5LQErIS5qsYVif_62-143" value="6. saveAccount()" style="text;html=1;align=center;verticalAlign=middle;resizable=0;points=[];autosize=1;strokeColor=none;fillColor=none;" parent="1" vertex="1">
          <mxGeometry x="640" y="1898" width="110" height="30" as="geometry" />
        </mxCell>
        <mxCell id="QKt5LQErIS5qsYVif_62-144" value="" style="endArrow=classic;html=1;rounded=0;exitX=1.132;exitY=0.647;exitDx=0;exitDy=0;exitPerimeter=0;entryX=-0.035;entryY=0.574;entryDx=0;entryDy=0;entryPerimeter=0;" parent="1" source="QKt5LQErIS5qsYVif_62-92" target="QKt5LQErIS5qsYVif_62-94" edge="1">
          <mxGeometry width="50" height="50" relative="1" as="geometry">
            <mxPoint x="800" y="1947" as="sourcePoint" />
            <mxPoint x="950" y="1955" as="targetPoint" />
          </mxGeometry>
        </mxCell>
        <mxCell id="QKt5LQErIS5qsYVif_62-145" value="7. ExecuteSave()" style="text;html=1;align=center;verticalAlign=middle;resizable=0;points=[];autosize=1;strokeColor=none;fillColor=none;" parent="1" vertex="1">
          <mxGeometry x="805" y="1920" width="120" height="30" as="geometry" />
        </mxCell>
        <mxCell id="QKt5LQErIS5qsYVif_62-146" value="" style="endArrow=open;endSize=12;dashed=1;html=1;rounded=0;exitX=0.026;exitY=0.891;exitDx=0;exitDy=0;exitPerimeter=0;entryX=0.98;entryY=0.87;entryDx=0;entryDy=0;entryPerimeter=0;" parent="1" source="QKt5LQErIS5qsYVif_62-94" target="QKt5LQErIS5qsYVif_62-92" edge="1">
          <mxGeometry width="160" relative="1" as="geometry">
            <mxPoint x="910" y="1988.0044444444447" as="sourcePoint" />
            <mxPoint x="830" y="1975.56" as="targetPoint" />
          </mxGeometry>
        </mxCell>
        <mxCell id="QKt5LQErIS5qsYVif_62-147" value="8.Return result" style="text;html=1;align=center;verticalAlign=middle;resizable=0;points=[];autosize=1;strokeColor=none;fillColor=none;" parent="1" vertex="1">
          <mxGeometry x="825" y="1950" width="100" height="30" as="geometry" />
        </mxCell>
        <mxCell id="QKt5LQErIS5qsYVif_62-149" value="" style="endArrow=open;endSize=12;dashed=1;html=1;rounded=0;exitX=-0.041;exitY=0.852;exitDx=0;exitDy=0;exitPerimeter=0;entryX=0.915;entryY=0.949;entryDx=0;entryDy=0;entryPerimeter=0;" parent="1" source="QKt5LQErIS5qsYVif_62-92" target="QKt5LQErIS5qsYVif_62-90" edge="1">
          <mxGeometry width="160" relative="1" as="geometry">
            <mxPoint x="595" y="2060" as="sourcePoint" />
            <mxPoint x="755" y="2060" as="targetPoint" />
          </mxGeometry>
        </mxCell>
        <mxCell id="QKt5LQErIS5qsYVif_62-150" value="9. Return result" style="text;html=1;align=center;verticalAlign=middle;resizable=0;points=[];autosize=1;strokeColor=none;fillColor=none;" parent="1" vertex="1">
          <mxGeometry x="630" y="1950" width="110" height="30" as="geometry" />
        </mxCell>
        <mxCell id="QKt5LQErIS5qsYVif_62-151" value="" style="endArrow=open;endSize=12;dashed=1;html=1;rounded=0;entryX=0.915;entryY=0.949;entryDx=0;entryDy=0;entryPerimeter=0;" parent="1" edge="1">
          <mxGeometry width="160" relative="1" as="geometry">
            <mxPoint x="580" y="1980" as="sourcePoint" />
            <mxPoint x="425" y="1980" as="targetPoint" />
          </mxGeometry>
        </mxCell>
        <mxCell id="QKt5LQErIS5qsYVif_62-152" value="&lt;span style=&quot;color: rgb(240, 240, 240); font-family: Helvetica; font-size: 12px; font-style: normal; font-variant-ligatures: normal; font-variant-caps: normal; font-weight: 400; letter-spacing: normal; orphans: 2; text-align: center; text-indent: 0px; text-transform: none; widows: 2; word-spacing: 0px; -webkit-text-stroke-width: 0px; background-color: rgb(42, 37, 47); text-decoration-thickness: initial; text-decoration-style: initial; text-decoration-color: initial; float: none; display: inline !important;&quot;&gt;10. Return result&lt;/span&gt;" style="text;whiteSpace=wrap;html=1;" parent="1" vertex="1">
          <mxGeometry x="460" y="1955" width="120" height="40" as="geometry" />
        </mxCell>
        <mxCell id="QKt5LQErIS5qsYVif_62-153" value="" style="endArrow=open;endSize=12;dashed=1;html=1;rounded=0;entryX=0.937;entryY=0.784;entryDx=0;entryDy=0;entryPerimeter=0;exitX=-0.03;exitY=0.965;exitDx=0;exitDy=0;exitPerimeter=0;" parent="1" source="QKt5LQErIS5qsYVif_62-89" target="QKt5LQErIS5qsYVif_62-88" edge="1">
          <mxGeometry width="160" relative="1" as="geometry">
            <mxPoint x="380" y="2000" as="sourcePoint" />
            <mxPoint x="264" y="2000" as="targetPoint" />
          </mxGeometry>
        </mxCell>
        <mxCell id="QKt5LQErIS5qsYVif_62-154" value="&lt;span style=&quot;color: rgb(240, 240, 240); font-family: Helvetica; font-size: 12px; font-style: normal; font-variant-ligatures: normal; font-variant-caps: normal; font-weight: 400; letter-spacing: normal; orphans: 2; text-align: center; text-indent: 0px; text-transform: none; widows: 2; word-spacing: 0px; -webkit-text-stroke-width: 0px; background-color: rgb(42, 37, 47); text-decoration-thickness: initial; text-decoration-style: initial; text-decoration-color: initial; float: none; display: inline !important;&quot;&gt;11. Return valid&lt;/span&gt;" style="text;whiteSpace=wrap;html=1;" parent="1" vertex="1">
          <mxGeometry x="270" y="1968" width="120" height="40" as="geometry" />
        </mxCell>
        <mxCell id="QKt5LQErIS5qsYVif_62-158" value="" style="endArrow=open;endSize=12;dashed=1;html=1;rounded=0;exitX=0.024;exitY=0.971;exitDx=0;exitDy=0;exitPerimeter=0;" parent="1" source="QKt5LQErIS5qsYVif_62-88" edge="1">
          <mxGeometry width="160" relative="1" as="geometry">
            <mxPoint x="50" y="2070" as="sourcePoint" />
            <mxPoint x="40" y="2070" as="targetPoint" />
          </mxGeometry>
        </mxCell>
        <mxCell id="QKt5LQErIS5qsYVif_62-159" value="&lt;span style=&quot;color: rgb(240, 240, 240); font-family: Helvetica; font-size: 12px; font-style: normal; font-variant-ligatures: normal; font-variant-caps: normal; font-weight: 400; letter-spacing: normal; orphans: 2; text-align: center; text-indent: 0px; text-transform: none; widows: 2; word-spacing: 0px; -webkit-text-stroke-width: 0px; background-color: rgb(42, 37, 47); text-decoration-thickness: initial; text-decoration-style: initial; text-decoration-color: initial; float: none; display: inline !important;&quot;&gt;12. Display Register Message&amp;nbsp;&lt;/span&gt;" style="text;whiteSpace=wrap;html=1;" parent="1" vertex="1">
          <mxGeometry x="50" y="2040" width="170" height="40" as="geometry" />
        </mxCell>
        <mxCell id="QKt5LQErIS5qsYVif_62-164" value="" style="endArrow=none;dashed=1;html=1;rounded=0;entryX=0.5;entryY=1;entryDx=0;entryDy=0;" parent="1" target="QKt5LQErIS5qsYVif_62-89" edge="1">
          <mxGeometry width="50" height="50" relative="1" as="geometry">
            <mxPoint x="415" y="2120" as="sourcePoint" />
            <mxPoint x="440" y="2050" as="targetPoint" />
          </mxGeometry>
        </mxCell>
        <mxCell id="QKt5LQErIS5qsYVif_62-165" value="" style="endArrow=none;dashed=1;html=1;rounded=0;entryX=0.5;entryY=1;entryDx=0;entryDy=0;" parent="1" target="QKt5LQErIS5qsYVif_62-90" edge="1">
          <mxGeometry width="50" height="50" relative="1" as="geometry">
            <mxPoint x="590" y="2120" as="sourcePoint" />
            <mxPoint x="589.5699999999999" y="2040" as="targetPoint" />
          </mxGeometry>
        </mxCell>
        <mxCell id="QKt5LQErIS5qsYVif_62-166" value="" style="endArrow=none;dashed=1;html=1;rounded=0;entryX=0.5;entryY=1;entryDx=0;entryDy=0;" parent="1" target="QKt5LQErIS5qsYVif_62-92" edge="1">
          <mxGeometry width="50" height="50" relative="1" as="geometry">
            <mxPoint x="790" y="2120" as="sourcePoint" />
            <mxPoint x="789.13" y="2030" as="targetPoint" />
          </mxGeometry>
        </mxCell>
        <mxCell id="QKt5LQErIS5qsYVif_62-167" value="" style="endArrow=none;dashed=1;html=1;rounded=0;entryX=0.5;entryY=1;entryDx=0;entryDy=0;" parent="1" target="QKt5LQErIS5qsYVif_62-94" edge="1">
          <mxGeometry width="50" height="50" relative="1" as="geometry">
            <mxPoint x="959.58" y="2133" as="sourcePoint" />
            <mxPoint x="959.58" y="2008" as="targetPoint" />
          </mxGeometry>
        </mxCell>
        <mxCell id="QKt5LQErIS5qsYVif_62-169" value=":AccountService" style="rounded=0;whiteSpace=wrap;html=1;" parent="1" vertex="1">
          <mxGeometry x="520" y="2230" width="120" height="50" as="geometry" />
        </mxCell>
        <mxCell id="QKt5LQErIS5qsYVif_62-170" value=":AccountRepository" style="rounded=0;whiteSpace=wrap;html=1;" parent="1" vertex="1">
          <mxGeometry x="720" y="2235" width="120" height="50" as="geometry" />
        </mxCell>
        <mxCell id="QKt5LQErIS5qsYVif_62-171" value="DataBase" style="rounded=0;whiteSpace=wrap;html=1;" parent="1" vertex="1">
          <mxGeometry x="890" y="2235" width="120" height="50" as="geometry" />
        </mxCell>
        <mxCell id="QKt5LQErIS5qsYVif_62-172" value="" style="endArrow=none;dashed=1;html=1;rounded=0;" parent="1" edge="1">
          <mxGeometry width="50" height="50" relative="1" as="geometry">
            <mxPoint x="35" y="2720" as="sourcePoint" />
            <mxPoint x="34.76" y="2300" as="targetPoint" />
          </mxGeometry>
        </mxCell>
        <mxCell id="QKt5LQErIS5qsYVif_62-173" value="" style="endArrow=none;dashed=1;html=1;rounded=0;entryX=0.5;entryY=1;entryDx=0;entryDy=0;exitX=0.5;exitY=0;exitDx=0;exitDy=0;" parent="1" source="QKt5LQErIS5qsYVif_62-174" edge="1">
          <mxGeometry width="50" height="50" relative="1" as="geometry">
            <mxPoint x="160" y="2310" as="sourcePoint" />
            <mxPoint x="230" y="2270" as="targetPoint" />
          </mxGeometry>
        </mxCell>
        <mxCell id="QKt5LQErIS5qsYVif_62-174" value="" style="rounded=0;whiteSpace=wrap;html=1;" parent="1" vertex="1">
          <mxGeometry x="220" y="2308" width="20" height="382" as="geometry" />
        </mxCell>
        <mxCell id="QKt5LQErIS5qsYVif_62-175" value="" style="rounded=0;whiteSpace=wrap;html=1;" parent="1" vertex="1">
          <mxGeometry x="395" y="2338" width="20" height="280" as="geometry" />
        </mxCell>
        <mxCell id="QKt5LQErIS5qsYVif_62-176" value="" style="rounded=0;whiteSpace=wrap;html=1;" parent="1" vertex="1">
          <mxGeometry x="570" y="2358" width="20" height="240" as="geometry" />
        </mxCell>
        <mxCell id="QKt5LQErIS5qsYVif_62-177" value="" style="rounded=0;whiteSpace=wrap;html=1;" parent="1" vertex="1">
          <mxGeometry x="770" y="2475" width="20" height="130" as="geometry" />
        </mxCell>
        <mxCell id="QKt5LQErIS5qsYVif_62-178" value="" style="rounded=0;whiteSpace=wrap;html=1;" parent="1" vertex="1">
          <mxGeometry x="940" y="2508" width="20" height="90" as="geometry" />
        </mxCell>
        <mxCell id="QKt5LQErIS5qsYVif_62-179" value="" style="endArrow=classic;html=1;rounded=0;entryX=0.083;entryY=0.075;entryDx=0;entryDy=0;entryPerimeter=0;" parent="1" target="QKt5LQErIS5qsYVif_62-174" edge="1">
          <mxGeometry width="50" height="50" relative="1" as="geometry">
            <mxPoint x="40" y="2336" as="sourcePoint" />
            <mxPoint x="320" y="2340" as="targetPoint" />
          </mxGeometry>
        </mxCell>
        <mxCell id="QKt5LQErIS5qsYVif_62-180" value="1.Change Info User" style="text;html=1;align=center;verticalAlign=middle;resizable=0;points=[];autosize=1;strokeColor=none;fillColor=none;" parent="1" vertex="1">
          <mxGeometry x="60" y="2308" width="130" height="30" as="geometry" />
        </mxCell>
        <mxCell id="QKt5LQErIS5qsYVif_62-181" value="" style="endArrow=classic;html=1;rounded=0;entryX=0.083;entryY=0.075;entryDx=0;entryDy=0;entryPerimeter=0;" parent="1" edge="1">
          <mxGeometry width="50" height="50" relative="1" as="geometry">
            <mxPoint x="38" y="2372" as="sourcePoint" />
            <mxPoint x="220" y="2370" as="targetPoint" />
          </mxGeometry>
        </mxCell>
        <mxCell id="QKt5LQErIS5qsYVif_62-182" value="2.Click Button Save Change" style="text;html=1;align=center;verticalAlign=middle;resizable=0;points=[];autosize=1;strokeColor=none;fillColor=none;" parent="1" vertex="1">
          <mxGeometry x="41" y="2338" width="170" height="30" as="geometry" />
        </mxCell>
        <mxCell id="QKt5LQErIS5qsYVif_62-183" value="" style="endArrow=none;dashed=1;html=1;rounded=0;exitX=0.5;exitY=0;exitDx=0;exitDy=0;entryX=0.516;entryY=0.961;entryDx=0;entryDy=0;entryPerimeter=0;" parent="1" source="QKt5LQErIS5qsYVif_62-175" edge="1">
          <mxGeometry width="50" height="50" relative="1" as="geometry">
            <mxPoint x="400" y="2338" as="sourcePoint" />
            <mxPoint x="405" y="2273" as="targetPoint" />
            <Array as="points">
              <mxPoint x="405" y="2310" />
            </Array>
          </mxGeometry>
        </mxCell>
        <mxCell id="QKt5LQErIS5qsYVif_62-184" value="" style="endArrow=none;dashed=1;html=1;rounded=0;exitX=0.5;exitY=0;exitDx=0;exitDy=0;entryX=0.5;entryY=1;entryDx=0;entryDy=0;" parent="1" source="QKt5LQErIS5qsYVif_62-176" target="QKt5LQErIS5qsYVif_62-169" edge="1">
          <mxGeometry width="50" height="50" relative="1" as="geometry">
            <mxPoint x="579.67" y="2350" as="sourcePoint" />
            <mxPoint x="579.67" y="2285" as="targetPoint" />
            <Array as="points">
              <mxPoint x="579.67" y="2322" />
            </Array>
          </mxGeometry>
        </mxCell>
        <mxCell id="QKt5LQErIS5qsYVif_62-185" value="" style="endArrow=none;dashed=1;html=1;rounded=0;exitX=0.5;exitY=0;exitDx=0;exitDy=0;entryX=0.5;entryY=1;entryDx=0;entryDy=0;" parent="1" edge="1">
          <mxGeometry width="50" height="50" relative="1" as="geometry">
            <mxPoint x="780.17" y="2440" as="sourcePoint" />
            <mxPoint x="780.17" y="2285" as="targetPoint" />
            <Array as="points" />
          </mxGeometry>
        </mxCell>
        <mxCell id="QKt5LQErIS5qsYVif_62-186" value="" style="endArrow=none;dashed=1;html=1;rounded=0;exitX=0.5;exitY=0;exitDx=0;exitDy=0;entryX=0.5;entryY=1;entryDx=0;entryDy=0;" parent="1" source="QKt5LQErIS5qsYVif_62-178" target="QKt5LQErIS5qsYVif_62-171" edge="1">
          <mxGeometry width="50" height="50" relative="1" as="geometry">
            <mxPoint x="980" y="2455" as="sourcePoint" />
            <mxPoint x="980" y="2300" as="targetPoint" />
            <Array as="points" />
          </mxGeometry>
        </mxCell>
        <mxCell id="QKt5LQErIS5qsYVif_62-187" value="3.editAccount()" style="text;html=1;align=center;verticalAlign=middle;resizable=0;points=[];autosize=1;strokeColor=none;fillColor=none;" parent="1" vertex="1">
          <mxGeometry x="265" y="2368" width="100" height="30" as="geometry" />
        </mxCell>
        <mxCell id="QKt5LQErIS5qsYVif_62-190" value="" style="endArrow=none;dashed=1;html=1;rounded=0;entryX=0.5;entryY=1;entryDx=0;entryDy=0;exitX=0.5;exitY=0;exitDx=0;exitDy=0;" parent="1" edge="1">
          <mxGeometry width="50" height="50" relative="1" as="geometry">
            <mxPoint x="229.44" y="2728" as="sourcePoint" />
            <mxPoint x="229.44" y="2690" as="targetPoint" />
          </mxGeometry>
        </mxCell>
        <mxCell id="QKt5LQErIS5qsYVif_62-191" value="[Invalid Info}" style="text;html=1;align=center;verticalAlign=middle;resizable=0;points=[];autosize=1;strokeColor=none;fillColor=none;" parent="1" vertex="1">
          <mxGeometry y="2470" width="90" height="30" as="geometry" />
        </mxCell>
        <mxCell id="QKt5LQErIS5qsYVif_62-192" value="[Valid Info]" style="text;html=1;align=center;verticalAlign=middle;resizable=0;points=[];autosize=1;strokeColor=none;fillColor=none;" parent="1" vertex="1">
          <mxGeometry x="5" y="2525" width="80" height="30" as="geometry" />
        </mxCell>
        <mxCell id="QKt5LQErIS5qsYVif_62-193" value="" style="endArrow=classic;html=1;rounded=0;exitX=0.964;exitY=0.243;exitDx=0;exitDy=0;entryX=0.01;entryY=0.223;entryDx=0;entryDy=0;entryPerimeter=0;exitPerimeter=0;" parent="1" source="QKt5LQErIS5qsYVif_62-174" target="QKt5LQErIS5qsYVif_62-175" edge="1">
          <mxGeometry width="50" height="50" relative="1" as="geometry">
            <mxPoint x="260" y="2450" as="sourcePoint" />
            <mxPoint x="310" y="2400" as="targetPoint" />
          </mxGeometry>
        </mxCell>
        <mxCell id="QKt5LQErIS5qsYVif_62-194" value="all validate infor user" style="shape=umlFrame;whiteSpace=wrap;html=1;pointerEvents=0;width=190;height=30;" parent="1" vertex="1">
          <mxGeometry x="-30" y="2440" width="1060" height="200" as="geometry" />
        </mxCell>
        <mxCell id="QKt5LQErIS5qsYVif_62-197" value="4 Return Invalid View" style="text;html=1;align=center;verticalAlign=middle;resizable=0;points=[];autosize=1;strokeColor=none;fillColor=none;" parent="1" vertex="1">
          <mxGeometry x="250" y="2470" width="140" height="30" as="geometry" />
        </mxCell>
        <mxCell id="QKt5LQErIS5qsYVif_62-198" value="" style="endArrow=open;endSize=12;dashed=1;html=1;rounded=0;exitX=-0.167;exitY=0.571;exitDx=0;exitDy=0;exitPerimeter=0;entryX=1;entryY=0.5;entryDx=0;entryDy=0;" parent="1" source="QKt5LQErIS5qsYVif_62-175" target="QKt5LQErIS5qsYVif_62-174" edge="1">
          <mxGeometry width="160" relative="1" as="geometry">
            <mxPoint x="260" y="2574.58" as="sourcePoint" />
            <mxPoint x="420" y="2574.58" as="targetPoint" />
          </mxGeometry>
        </mxCell>
        <mxCell id="QKt5LQErIS5qsYVif_62-199" value="" style="endArrow=classic;html=1;rounded=0;exitX=1.102;exitY=0.714;exitDx=0;exitDy=0;exitPerimeter=0;entryX=-0.05;entryY=0.437;entryDx=0;entryDy=0;entryPerimeter=0;" parent="1" edge="1">
          <mxGeometry width="50" height="50" relative="1" as="geometry">
            <mxPoint x="591.04" y="2535.5499999999997" as="sourcePoint" />
            <mxPoint x="768.0000000000005" y="2538.0000000000005" as="targetPoint" />
          </mxGeometry>
        </mxCell>
        <mxCell id="QKt5LQErIS5qsYVif_62-200" value="6. editAccount()" style="text;html=1;align=center;verticalAlign=middle;resizable=0;points=[];autosize=1;strokeColor=none;fillColor=none;" parent="1" vertex="1">
          <mxGeometry x="628" y="2508" width="110" height="30" as="geometry" />
        </mxCell>
        <mxCell id="QKt5LQErIS5qsYVif_62-201" value="" style="endArrow=classic;html=1;rounded=0;exitX=1.132;exitY=0.647;exitDx=0;exitDy=0;exitPerimeter=0;entryX=-0.035;entryY=0.574;entryDx=0;entryDy=0;entryPerimeter=0;" parent="1" source="QKt5LQErIS5qsYVif_62-177" target="QKt5LQErIS5qsYVif_62-178" edge="1">
          <mxGeometry width="50" height="50" relative="1" as="geometry">
            <mxPoint x="790" y="2557" as="sourcePoint" />
            <mxPoint x="940" y="2565" as="targetPoint" />
          </mxGeometry>
        </mxCell>
        <mxCell id="QKt5LQErIS5qsYVif_62-202" value="7. ExecuteEdit()" style="text;html=1;align=center;verticalAlign=middle;resizable=0;points=[];autosize=1;strokeColor=none;fillColor=none;" parent="1" vertex="1">
          <mxGeometry x="800" y="2530" width="110" height="30" as="geometry" />
        </mxCell>
        <mxCell id="QKt5LQErIS5qsYVif_62-203" value="" style="endArrow=open;endSize=12;dashed=1;html=1;rounded=0;exitX=0.026;exitY=0.891;exitDx=0;exitDy=0;exitPerimeter=0;entryX=0.98;entryY=0.87;entryDx=0;entryDy=0;entryPerimeter=0;" parent="1" source="QKt5LQErIS5qsYVif_62-178" target="QKt5LQErIS5qsYVif_62-177" edge="1">
          <mxGeometry width="160" relative="1" as="geometry">
            <mxPoint x="900" y="2598.0044444444447" as="sourcePoint" />
            <mxPoint x="820" y="2585.56" as="targetPoint" />
          </mxGeometry>
        </mxCell>
        <mxCell id="QKt5LQErIS5qsYVif_62-204" value="8.Return result" style="text;html=1;align=center;verticalAlign=middle;resizable=0;points=[];autosize=1;strokeColor=none;fillColor=none;" parent="1" vertex="1">
          <mxGeometry x="815" y="2560" width="100" height="30" as="geometry" />
        </mxCell>
        <mxCell id="QKt5LQErIS5qsYVif_62-205" value="" style="endArrow=open;endSize=12;dashed=1;html=1;rounded=0;exitX=-0.041;exitY=0.852;exitDx=0;exitDy=0;exitPerimeter=0;entryX=0.915;entryY=0.949;entryDx=0;entryDy=0;entryPerimeter=0;" parent="1" source="QKt5LQErIS5qsYVif_62-177" target="QKt5LQErIS5qsYVif_62-176" edge="1">
          <mxGeometry width="160" relative="1" as="geometry">
            <mxPoint x="585" y="2670" as="sourcePoint" />
            <mxPoint x="745" y="2670" as="targetPoint" />
          </mxGeometry>
        </mxCell>
        <mxCell id="QKt5LQErIS5qsYVif_62-206" value="9. Return result" style="text;html=1;align=center;verticalAlign=middle;resizable=0;points=[];autosize=1;strokeColor=none;fillColor=none;" parent="1" vertex="1">
          <mxGeometry x="620" y="2560" width="110" height="30" as="geometry" />
        </mxCell>
        <mxCell id="QKt5LQErIS5qsYVif_62-207" value="" style="endArrow=open;endSize=12;dashed=1;html=1;rounded=0;entryX=0.915;entryY=0.949;entryDx=0;entryDy=0;entryPerimeter=0;" parent="1" edge="1">
          <mxGeometry width="160" relative="1" as="geometry">
            <mxPoint x="570" y="2590" as="sourcePoint" />
            <mxPoint x="415" y="2590" as="targetPoint" />
          </mxGeometry>
        </mxCell>
        <mxCell id="QKt5LQErIS5qsYVif_62-208" value="&lt;span style=&quot;color: rgb(240, 240, 240); font-family: Helvetica; font-size: 12px; font-style: normal; font-variant-ligatures: normal; font-variant-caps: normal; font-weight: 400; letter-spacing: normal; orphans: 2; text-align: center; text-indent: 0px; text-transform: none; widows: 2; word-spacing: 0px; -webkit-text-stroke-width: 0px; background-color: rgb(42, 37, 47); text-decoration-thickness: initial; text-decoration-style: initial; text-decoration-color: initial; float: none; display: inline !important;&quot;&gt;10. Return result&lt;/span&gt;" style="text;whiteSpace=wrap;html=1;" parent="1" vertex="1">
          <mxGeometry x="450" y="2565" width="120" height="40" as="geometry" />
        </mxCell>
        <mxCell id="QKt5LQErIS5qsYVif_62-209" value="" style="endArrow=open;endSize=12;dashed=1;html=1;rounded=0;entryX=0.937;entryY=0.784;entryDx=0;entryDy=0;entryPerimeter=0;exitX=-0.03;exitY=0.965;exitDx=0;exitDy=0;exitPerimeter=0;" parent="1" source="QKt5LQErIS5qsYVif_62-175" target="QKt5LQErIS5qsYVif_62-174" edge="1">
          <mxGeometry width="160" relative="1" as="geometry">
            <mxPoint x="370" y="2610" as="sourcePoint" />
            <mxPoint x="254" y="2610" as="targetPoint" />
          </mxGeometry>
        </mxCell>
        <mxCell id="QKt5LQErIS5qsYVif_62-210" value="&lt;span style=&quot;color: rgb(240, 240, 240); font-family: Helvetica; font-size: 12px; font-style: normal; font-variant-ligatures: normal; font-variant-caps: normal; font-weight: 400; letter-spacing: normal; orphans: 2; text-align: center; text-indent: 0px; text-transform: none; widows: 2; word-spacing: 0px; -webkit-text-stroke-width: 0px; background-color: rgb(42, 37, 47); text-decoration-thickness: initial; text-decoration-style: initial; text-decoration-color: initial; float: none; display: inline !important;&quot;&gt;11. Return valid&lt;/span&gt;" style="text;whiteSpace=wrap;html=1;" parent="1" vertex="1">
          <mxGeometry x="260" y="2578" width="120" height="40" as="geometry" />
        </mxCell>
        <mxCell id="QKt5LQErIS5qsYVif_62-211" value="" style="endArrow=open;endSize=12;dashed=1;html=1;rounded=0;exitX=0.024;exitY=0.971;exitDx=0;exitDy=0;exitPerimeter=0;" parent="1" source="QKt5LQErIS5qsYVif_62-174" edge="1">
          <mxGeometry width="160" relative="1" as="geometry">
            <mxPoint x="40" y="2680" as="sourcePoint" />
            <mxPoint x="30" y="2680" as="targetPoint" />
          </mxGeometry>
        </mxCell>
        <mxCell id="QKt5LQErIS5qsYVif_62-212" value="&lt;span style=&quot;color: rgb(240, 240, 240); font-family: Helvetica; font-size: 12px; font-style: normal; font-variant-ligatures: normal; font-variant-caps: normal; font-weight: 400; letter-spacing: normal; orphans: 2; text-align: center; text-indent: 0px; text-transform: none; widows: 2; word-spacing: 0px; -webkit-text-stroke-width: 0px; background-color: rgb(42, 37, 47); text-decoration-thickness: initial; text-decoration-style: initial; text-decoration-color: initial; float: none; display: inline !important;&quot;&gt;12. Display Update Message&lt;/span&gt;" style="text;whiteSpace=wrap;html=1;" parent="1" vertex="1">
          <mxGeometry x="40" y="2650" width="180" height="40" as="geometry" />
        </mxCell>
        <mxCell id="QKt5LQErIS5qsYVif_62-213" value="" style="endArrow=none;dashed=1;html=1;rounded=0;entryX=0.5;entryY=1;entryDx=0;entryDy=0;" parent="1" target="QKt5LQErIS5qsYVif_62-175" edge="1">
          <mxGeometry width="50" height="50" relative="1" as="geometry">
            <mxPoint x="405" y="2730" as="sourcePoint" />
            <mxPoint x="430" y="2660" as="targetPoint" />
          </mxGeometry>
        </mxCell>
        <mxCell id="QKt5LQErIS5qsYVif_62-214" value="" style="endArrow=none;dashed=1;html=1;rounded=0;entryX=0.5;entryY=1;entryDx=0;entryDy=0;" parent="1" target="QKt5LQErIS5qsYVif_62-176" edge="1">
          <mxGeometry width="50" height="50" relative="1" as="geometry">
            <mxPoint x="580" y="2730" as="sourcePoint" />
            <mxPoint x="579.5699999999999" y="2650" as="targetPoint" />
          </mxGeometry>
        </mxCell>
        <mxCell id="QKt5LQErIS5qsYVif_62-215" value="" style="endArrow=none;dashed=1;html=1;rounded=0;entryX=0.5;entryY=1;entryDx=0;entryDy=0;" parent="1" target="QKt5LQErIS5qsYVif_62-177" edge="1">
          <mxGeometry width="50" height="50" relative="1" as="geometry">
            <mxPoint x="780" y="2730" as="sourcePoint" />
            <mxPoint x="779.13" y="2640" as="targetPoint" />
          </mxGeometry>
        </mxCell>
        <mxCell id="QKt5LQErIS5qsYVif_62-216" value="" style="endArrow=none;dashed=1;html=1;rounded=0;entryX=0.5;entryY=1;entryDx=0;entryDy=0;" parent="1" target="QKt5LQErIS5qsYVif_62-178" edge="1">
          <mxGeometry width="50" height="50" relative="1" as="geometry">
            <mxPoint x="949.58" y="2743" as="sourcePoint" />
            <mxPoint x="949.58" y="2618" as="targetPoint" />
          </mxGeometry>
        </mxCell>
        <mxCell id="QKt5LQErIS5qsYVif_62-217" value="User" style="shape=umlActor;verticalLabelPosition=bottom;verticalAlign=top;html=1;outlineConnect=0;" parent="1" vertex="1">
          <mxGeometry x="20" y="2220" width="30" height="60" as="geometry" />
        </mxCell>
        <mxCell id="QKt5LQErIS5qsYVif_62-218" value="View" style="rounded=0;whiteSpace=wrap;html=1;" parent="1" vertex="1">
          <mxGeometry x="185" y="2220" width="100" height="50" as="geometry" />
        </mxCell>
        <mxCell id="QKt5LQErIS5qsYVif_62-219" value=":AccountController" style="rounded=0;whiteSpace=wrap;html=1;" parent="1" vertex="1">
          <mxGeometry x="342.5" y="2230" width="125" height="50" as="geometry" />
        </mxCell>
        <mxCell id="QKt5LQErIS5qsYVif_62-220" value=":AccountService" style="rounded=0;whiteSpace=wrap;html=1;" parent="1" vertex="1">
          <mxGeometry x="448" y="2750" width="120" height="50" as="geometry" />
        </mxCell>
        <mxCell id="QKt5LQErIS5qsYVif_62-221" value=":AccountRepository" style="rounded=0;whiteSpace=wrap;html=1;" parent="1" vertex="1">
          <mxGeometry x="648" y="2755" width="120" height="50" as="geometry" />
        </mxCell>
        <mxCell id="QKt5LQErIS5qsYVif_62-222" value="DataBase" style="rounded=0;whiteSpace=wrap;html=1;" parent="1" vertex="1">
          <mxGeometry x="818" y="2755" width="120" height="50" as="geometry" />
        </mxCell>
        <mxCell id="QKt5LQErIS5qsYVif_62-223" value="" style="endArrow=none;dashed=1;html=1;rounded=0;" parent="1" edge="1">
          <mxGeometry width="50" height="50" relative="1" as="geometry">
            <mxPoint x="-37" y="3240" as="sourcePoint" />
            <mxPoint x="-37.24" y="2820" as="targetPoint" />
          </mxGeometry>
        </mxCell>
        <mxCell id="QKt5LQErIS5qsYVif_62-224" value="" style="endArrow=none;dashed=1;html=1;rounded=0;entryX=0.5;entryY=1;entryDx=0;entryDy=0;exitX=0.5;exitY=0;exitDx=0;exitDy=0;" parent="1" source="QKt5LQErIS5qsYVif_62-225" edge="1">
          <mxGeometry width="50" height="50" relative="1" as="geometry">
            <mxPoint x="88" y="2830" as="sourcePoint" />
            <mxPoint x="158" y="2790" as="targetPoint" />
          </mxGeometry>
        </mxCell>
        <mxCell id="QKt5LQErIS5qsYVif_62-225" value="" style="rounded=0;whiteSpace=wrap;html=1;" parent="1" vertex="1">
          <mxGeometry x="148" y="2828" width="20" height="382" as="geometry" />
        </mxCell>
        <mxCell id="QKt5LQErIS5qsYVif_62-226" value="" style="rounded=0;whiteSpace=wrap;html=1;" parent="1" vertex="1">
          <mxGeometry x="323" y="2858" width="20" height="280" as="geometry" />
        </mxCell>
        <mxCell id="QKt5LQErIS5qsYVif_62-227" value="" style="rounded=0;whiteSpace=wrap;html=1;" parent="1" vertex="1">
          <mxGeometry x="498" y="2878" width="20" height="240" as="geometry" />
        </mxCell>
        <mxCell id="QKt5LQErIS5qsYVif_62-228" value="" style="rounded=0;whiteSpace=wrap;html=1;" parent="1" vertex="1">
          <mxGeometry x="698" y="2900" width="20" height="225" as="geometry" />
        </mxCell>
        <mxCell id="QKt5LQErIS5qsYVif_62-229" value="" style="rounded=0;whiteSpace=wrap;html=1;" parent="1" vertex="1">
          <mxGeometry x="868" y="2920" width="20" height="198" as="geometry" />
        </mxCell>
        <mxCell id="QKt5LQErIS5qsYVif_62-230" value="" style="endArrow=classic;html=1;rounded=0;entryX=0.083;entryY=0.075;entryDx=0;entryDy=0;entryPerimeter=0;" parent="1" target="QKt5LQErIS5qsYVif_62-225" edge="1">
          <mxGeometry width="50" height="50" relative="1" as="geometry">
            <mxPoint x="-32" y="2856" as="sourcePoint" />
            <mxPoint x="248" y="2860" as="targetPoint" />
          </mxGeometry>
        </mxCell>
        <mxCell id="QKt5LQErIS5qsYVif_62-231" value="1.Select View User Account Detail" style="text;html=1;align=center;verticalAlign=middle;resizable=0;points=[];autosize=1;strokeColor=none;fillColor=none;" parent="1" vertex="1">
          <mxGeometry x="-47" y="2828" width="200" height="30" as="geometry" />
        </mxCell>
        <mxCell id="QKt5LQErIS5qsYVif_62-234" value="" style="endArrow=none;dashed=1;html=1;rounded=0;exitX=0.5;exitY=0;exitDx=0;exitDy=0;entryX=0.516;entryY=0.961;entryDx=0;entryDy=0;entryPerimeter=0;" parent="1" source="QKt5LQErIS5qsYVif_62-226" edge="1">
          <mxGeometry width="50" height="50" relative="1" as="geometry">
            <mxPoint x="328" y="2858" as="sourcePoint" />
            <mxPoint x="333" y="2793" as="targetPoint" />
            <Array as="points">
              <mxPoint x="333" y="2830" />
            </Array>
          </mxGeometry>
        </mxCell>
        <mxCell id="QKt5LQErIS5qsYVif_62-235" value="" style="endArrow=none;dashed=1;html=1;rounded=0;exitX=0.5;exitY=0;exitDx=0;exitDy=0;entryX=0.5;entryY=1;entryDx=0;entryDy=0;" parent="1" source="QKt5LQErIS5qsYVif_62-227" target="QKt5LQErIS5qsYVif_62-220" edge="1">
          <mxGeometry width="50" height="50" relative="1" as="geometry">
            <mxPoint x="507.66999999999996" y="2870" as="sourcePoint" />
            <mxPoint x="507.66999999999996" y="2805" as="targetPoint" />
            <Array as="points">
              <mxPoint x="507.66999999999996" y="2842" />
            </Array>
          </mxGeometry>
        </mxCell>
        <mxCell id="QKt5LQErIS5qsYVif_62-236" value="" style="endArrow=none;dashed=1;html=1;rounded=0;entryX=0.5;entryY=1;entryDx=0;entryDy=0;" parent="1" edge="1">
          <mxGeometry width="50" height="50" relative="1" as="geometry">
            <mxPoint x="708" y="2900" as="sourcePoint" />
            <mxPoint x="708.17" y="2805" as="targetPoint" />
            <Array as="points" />
          </mxGeometry>
        </mxCell>
        <mxCell id="QKt5LQErIS5qsYVif_62-237" value="" style="endArrow=none;dashed=1;html=1;rounded=0;entryX=0.5;entryY=1;entryDx=0;entryDy=0;exitX=0.5;exitY=0;exitDx=0;exitDy=0;" parent="1" source="QKt5LQErIS5qsYVif_62-229" target="QKt5LQErIS5qsYVif_62-222" edge="1">
          <mxGeometry width="50" height="50" relative="1" as="geometry">
            <mxPoint x="878" y="2880" as="sourcePoint" />
            <mxPoint x="908" y="2820" as="targetPoint" />
            <Array as="points" />
          </mxGeometry>
        </mxCell>
        <mxCell id="QKt5LQErIS5qsYVif_62-238" value="2.getAccount()" style="text;html=1;align=center;verticalAlign=middle;resizable=0;points=[];autosize=1;strokeColor=none;fillColor=none;" parent="1" vertex="1">
          <mxGeometry x="198" y="2820" width="100" height="30" as="geometry" />
        </mxCell>
        <mxCell id="QKt5LQErIS5qsYVif_62-239" value="" style="endArrow=classic;html=1;rounded=0;entryX=0;entryY=0.25;entryDx=0;entryDy=0;exitX=0.98;exitY=0.287;exitDx=0;exitDy=0;exitPerimeter=0;" parent="1" edge="1">
          <mxGeometry width="50" height="50" relative="1" as="geometry">
            <mxPoint x="342.5999999999999" y="2888.3599999999997" as="sourcePoint" />
            <mxPoint x="498" y="2888" as="targetPoint" />
            <Array as="points" />
          </mxGeometry>
        </mxCell>
        <mxCell id="QKt5LQErIS5qsYVif_62-241" value="" style="endArrow=none;dashed=1;html=1;rounded=0;entryX=0.5;entryY=1;entryDx=0;entryDy=0;exitX=0.5;exitY=0;exitDx=0;exitDy=0;" parent="1" edge="1">
          <mxGeometry width="50" height="50" relative="1" as="geometry">
            <mxPoint x="157.44" y="3248" as="sourcePoint" />
            <mxPoint x="157.44" y="3210" as="targetPoint" />
          </mxGeometry>
        </mxCell>
        <mxCell id="QKt5LQErIS5qsYVif_62-242" value="[id not found]" style="text;html=1;align=center;verticalAlign=middle;resizable=0;points=[];autosize=1;strokeColor=none;fillColor=none;" parent="1" vertex="1">
          <mxGeometry x="-20" y="2990" width="90" height="30" as="geometry" />
        </mxCell>
        <mxCell id="QKt5LQErIS5qsYVif_62-243" value="[id found]" style="text;html=1;align=center;verticalAlign=middle;resizable=0;points=[];autosize=1;strokeColor=none;fillColor=none;" parent="1" vertex="1">
          <mxGeometry x="-25" y="3045" width="70" height="30" as="geometry" />
        </mxCell>
        <mxCell id="QKt5LQErIS5qsYVif_62-244" value="" style="endArrow=classic;html=1;rounded=0;exitX=0.964;exitY=0.243;exitDx=0;exitDy=0;entryX=0.01;entryY=0.223;entryDx=0;entryDy=0;entryPerimeter=0;exitPerimeter=0;" parent="1" edge="1">
          <mxGeometry width="50" height="50" relative="1" as="geometry">
            <mxPoint x="167.07999999999976" y="2870.3859999999995" as="sourcePoint" />
            <mxPoint x="322.99999999999983" y="2870" as="targetPoint" />
          </mxGeometry>
        </mxCell>
        <mxCell id="QKt5LQErIS5qsYVif_62-245" value="all validate infor user" style="shape=umlFrame;whiteSpace=wrap;html=1;pointerEvents=0;width=190;height=30;" parent="1" vertex="1">
          <mxGeometry x="-32" y="2949" width="1060" height="200" as="geometry" />
        </mxCell>
        <mxCell id="QKt5LQErIS5qsYVif_62-254" value="" style="endArrow=open;endSize=12;dashed=1;html=1;rounded=0;exitX=0;exitY=0.75;exitDx=0;exitDy=0;entryX=1;entryY=0.75;entryDx=0;entryDy=0;" parent="1" source="QKt5LQErIS5qsYVif_62-229" target="QKt5LQErIS5qsYVif_62-228" edge="1">
          <mxGeometry width="160" relative="1" as="geometry">
            <mxPoint x="828" y="3118.0044444444447" as="sourcePoint" />
            <mxPoint x="748" y="3105.56" as="targetPoint" />
          </mxGeometry>
        </mxCell>
        <mxCell id="QKt5LQErIS5qsYVif_62-256" value="" style="endArrow=open;endSize=12;dashed=1;html=1;rounded=0;exitX=-0.041;exitY=0.852;exitDx=0;exitDy=0;exitPerimeter=0;" parent="1" source="QKt5LQErIS5qsYVif_62-228" edge="1">
          <mxGeometry width="160" relative="1" as="geometry">
            <mxPoint x="513" y="3190" as="sourcePoint" />
            <mxPoint x="520" y="3092" as="targetPoint" />
          </mxGeometry>
        </mxCell>
        <mxCell id="QKt5LQErIS5qsYVif_62-257" value="9. Return result" style="text;html=1;align=center;verticalAlign=middle;resizable=0;points=[];autosize=1;strokeColor=none;fillColor=none;" parent="1" vertex="1">
          <mxGeometry x="556.5" y="3068" width="110" height="30" as="geometry" />
        </mxCell>
        <mxCell id="QKt5LQErIS5qsYVif_62-258" value="" style="endArrow=open;endSize=12;dashed=1;html=1;rounded=0;entryX=0.915;entryY=0.949;entryDx=0;entryDy=0;entryPerimeter=0;" parent="1" edge="1">
          <mxGeometry width="160" relative="1" as="geometry">
            <mxPoint x="498" y="3110" as="sourcePoint" />
            <mxPoint x="343" y="3110" as="targetPoint" />
          </mxGeometry>
        </mxCell>
        <mxCell id="QKt5LQErIS5qsYVif_62-259" value="&lt;span style=&quot;color: rgb(240, 240, 240); font-family: Helvetica; font-size: 12px; font-style: normal; font-variant-ligatures: normal; font-variant-caps: normal; font-weight: 400; letter-spacing: normal; orphans: 2; text-align: center; text-indent: 0px; text-transform: none; widows: 2; word-spacing: 0px; -webkit-text-stroke-width: 0px; background-color: rgb(42, 37, 47); text-decoration-thickness: initial; text-decoration-style: initial; text-decoration-color: initial; float: none; display: inline !important;&quot;&gt;10. Return result&lt;/span&gt;" style="text;whiteSpace=wrap;html=1;" parent="1" vertex="1">
          <mxGeometry x="378" y="3085" width="120" height="40" as="geometry" />
        </mxCell>
        <mxCell id="QKt5LQErIS5qsYVif_62-260" value="" style="endArrow=open;endSize=12;dashed=1;html=1;rounded=0;entryX=0.937;entryY=0.784;entryDx=0;entryDy=0;entryPerimeter=0;exitX=-0.03;exitY=0.965;exitDx=0;exitDy=0;exitPerimeter=0;" parent="1" source="QKt5LQErIS5qsYVif_62-226" target="QKt5LQErIS5qsYVif_62-225" edge="1">
          <mxGeometry width="160" relative="1" as="geometry">
            <mxPoint x="298" y="3130" as="sourcePoint" />
            <mxPoint x="182" y="3130" as="targetPoint" />
          </mxGeometry>
        </mxCell>
        <mxCell id="QKt5LQErIS5qsYVif_62-261" value="&lt;span style=&quot;color: rgb(240, 240, 240); font-family: Helvetica; font-size: 12px; font-style: normal; font-variant-ligatures: normal; font-variant-caps: normal; font-weight: 400; letter-spacing: normal; orphans: 2; text-align: center; text-indent: 0px; text-transform: none; widows: 2; word-spacing: 0px; -webkit-text-stroke-width: 0px; background-color: rgb(42, 37, 47); text-decoration-thickness: initial; text-decoration-style: initial; text-decoration-color: initial; float: none; display: inline !important;&quot;&gt;11. Return result&lt;/span&gt;" style="text;whiteSpace=wrap;html=1;" parent="1" vertex="1">
          <mxGeometry x="188" y="3098" width="120" height="40" as="geometry" />
        </mxCell>
        <mxCell id="QKt5LQErIS5qsYVif_62-262" value="" style="endArrow=open;endSize=12;dashed=1;html=1;rounded=0;exitX=0.024;exitY=0.971;exitDx=0;exitDy=0;exitPerimeter=0;" parent="1" source="QKt5LQErIS5qsYVif_62-225" edge="1">
          <mxGeometry width="160" relative="1" as="geometry">
            <mxPoint x="-32" y="3200" as="sourcePoint" />
            <mxPoint x="-42" y="3200" as="targetPoint" />
          </mxGeometry>
        </mxCell>
        <mxCell id="QKt5LQErIS5qsYVif_62-263" value="&lt;span style=&quot;color: rgb(240, 240, 240); font-family: Helvetica; font-size: 12px; font-style: normal; font-variant-ligatures: normal; font-variant-caps: normal; font-weight: 400; letter-spacing: normal; orphans: 2; text-align: center; text-indent: 0px; text-transform: none; widows: 2; word-spacing: 0px; -webkit-text-stroke-width: 0px; background-color: rgb(42, 37, 47); text-decoration-thickness: initial; text-decoration-style: initial; text-decoration-color: initial; float: none; display: inline !important;&quot;&gt;12.Display View&lt;/span&gt;" style="text;whiteSpace=wrap;html=1;" parent="1" vertex="1">
          <mxGeometry x="15" y="3170" width="180" height="40" as="geometry" />
        </mxCell>
        <mxCell id="QKt5LQErIS5qsYVif_62-264" value="" style="endArrow=none;dashed=1;html=1;rounded=0;entryX=0.5;entryY=1;entryDx=0;entryDy=0;" parent="1" target="QKt5LQErIS5qsYVif_62-226" edge="1">
          <mxGeometry width="50" height="50" relative="1" as="geometry">
            <mxPoint x="333" y="3250" as="sourcePoint" />
            <mxPoint x="358" y="3180" as="targetPoint" />
          </mxGeometry>
        </mxCell>
        <mxCell id="QKt5LQErIS5qsYVif_62-265" value="" style="endArrow=none;dashed=1;html=1;rounded=0;entryX=0.5;entryY=1;entryDx=0;entryDy=0;" parent="1" target="QKt5LQErIS5qsYVif_62-227" edge="1">
          <mxGeometry width="50" height="50" relative="1" as="geometry">
            <mxPoint x="508" y="3250" as="sourcePoint" />
            <mxPoint x="507.56999999999994" y="3170" as="targetPoint" />
          </mxGeometry>
        </mxCell>
        <mxCell id="QKt5LQErIS5qsYVif_62-266" value="" style="endArrow=none;dashed=1;html=1;rounded=0;entryX=0.5;entryY=1;entryDx=0;entryDy=0;" parent="1" target="QKt5LQErIS5qsYVif_62-228" edge="1">
          <mxGeometry width="50" height="50" relative="1" as="geometry">
            <mxPoint x="708" y="3250" as="sourcePoint" />
            <mxPoint x="707.13" y="3160" as="targetPoint" />
          </mxGeometry>
        </mxCell>
        <mxCell id="QKt5LQErIS5qsYVif_62-267" value="" style="endArrow=none;dashed=1;html=1;rounded=0;entryX=0.5;entryY=1;entryDx=0;entryDy=0;" parent="1" target="QKt5LQErIS5qsYVif_62-229" edge="1">
          <mxGeometry width="50" height="50" relative="1" as="geometry">
            <mxPoint x="877.58" y="3263" as="sourcePoint" />
            <mxPoint x="877.58" y="3138" as="targetPoint" />
          </mxGeometry>
        </mxCell>
        <mxCell id="QKt5LQErIS5qsYVif_62-268" value="User" style="shape=umlActor;verticalLabelPosition=bottom;verticalAlign=top;html=1;outlineConnect=0;" parent="1" vertex="1">
          <mxGeometry x="-52" y="2740" width="30" height="60" as="geometry" />
        </mxCell>
        <mxCell id="QKt5LQErIS5qsYVif_62-269" value="View" style="rounded=0;whiteSpace=wrap;html=1;" parent="1" vertex="1">
          <mxGeometry x="113" y="2740" width="100" height="50" as="geometry" />
        </mxCell>
        <mxCell id="QKt5LQErIS5qsYVif_62-270" value=":AccountController" style="rounded=0;whiteSpace=wrap;html=1;" parent="1" vertex="1">
          <mxGeometry x="270.5" y="2750" width="125" height="50" as="geometry" />
        </mxCell>
        <mxCell id="QKt5LQErIS5qsYVif_62-271" value="" style="endArrow=none;dashed=1;html=1;rounded=0;" parent="1" edge="1">
          <mxGeometry width="50" height="50" relative="1" as="geometry">
            <mxPoint x="-30" y="3040" as="sourcePoint" />
            <mxPoint x="1030" y="3030" as="targetPoint" />
          </mxGeometry>
        </mxCell>
        <mxCell id="QKt5LQErIS5qsYVif_62-272" value="" style="endArrow=none;dashed=1;html=1;rounded=0;" parent="1" source="WL6VqEPVw5pHVpMwfatw-46" edge="1">
          <mxGeometry width="50" height="50" relative="1" as="geometry">
            <mxPoint x="-147" y="2518" as="sourcePoint" />
            <mxPoint x="1030" y="2508" as="targetPoint" />
          </mxGeometry>
        </mxCell>
        <mxCell id="QKt5LQErIS5qsYVif_62-331" value="Account" style="swimlane;fontStyle=1;align=center;verticalAlign=top;childLayout=stackLayout;horizontal=1;startSize=26;horizontalStack=0;resizeParent=1;resizeParentMax=0;resizeLast=0;collapsible=1;marginBottom=0;whiteSpace=wrap;html=1;" parent="1" vertex="1">
          <mxGeometry x="405" y="3410" width="160" height="520" as="geometry">
            <mxRectangle x="405" y="3410" width="90" height="30" as="alternateBounds" />
          </mxGeometry>
        </mxCell>
        <mxCell id="QKt5LQErIS5qsYVif_62-332" value="- id: int&lt;br&gt;- Account Name : String&lt;br&gt;- Full Name : String&lt;br&gt;- Phone Number : String&amp;nbsp;&lt;br&gt;- Address:String&lt;br&gt;-Gender:String&lt;br&gt;-Password:String&lt;br&gt;-Role Id:String&lt;br&gt;-Facebook Id:String&lt;br&gt;-Google Id : String&lt;br&gt;-Number Id:String&lt;br&gt;-Profilepic:String&lt;br&gt;-Birthday: String&lt;br&gt;-Email:String&lt;br&gt;-Member Code:String&lt;br&gt;-Point:String&lt;br&gt;-isDelete: Boolean&lt;div&gt;&lt;br&gt;&lt;/div&gt;" style="text;strokeColor=none;fillColor=none;align=left;verticalAlign=top;spacingLeft=4;spacingRight=4;overflow=hidden;rotatable=0;points=[[0,0.5],[1,0.5]];portConstraint=eastwest;whiteSpace=wrap;html=1;" parent="QKt5LQErIS5qsYVif_62-331" vertex="1">
          <mxGeometry y="26" width="160" height="254" as="geometry" />
        </mxCell>
        <mxCell id="QKt5LQErIS5qsYVif_62-333" value="" style="line;strokeWidth=1;fillColor=none;align=left;verticalAlign=middle;spacingTop=-1;spacingLeft=3;spacingRight=3;rotatable=0;labelPosition=right;points=[];portConstraint=eastwest;strokeColor=inherit;" parent="QKt5LQErIS5qsYVif_62-331" vertex="1">
          <mxGeometry y="280" width="160" height="8" as="geometry" />
        </mxCell>
        <mxCell id="QKt5LQErIS5qsYVif_62-334" value="+ getter/setter" style="text;strokeColor=none;fillColor=none;align=left;verticalAlign=top;spacingLeft=4;spacingRight=4;overflow=hidden;rotatable=0;points=[[0,0.5],[1,0.5]];portConstraint=eastwest;whiteSpace=wrap;html=1;" parent="QKt5LQErIS5qsYVif_62-331" vertex="1">
          <mxGeometry y="288" width="160" height="232" as="geometry" />
        </mxCell>
        <mxCell id="QKt5LQErIS5qsYVif_62-339" value="&lt;p style=&quot;margin:0px;margin-top:4px;text-align:center;&quot;&gt;&lt;i&gt;&amp;lt;&amp;lt;Interface&amp;gt;&amp;gt;&lt;b&gt;&lt;br&gt;&lt;/b&gt;&lt;/i&gt;&lt;b&gt;IAccountService&lt;/b&gt;&lt;/p&gt;&lt;p style=&quot;margin:0px;margin-left:4px;&quot;&gt;+ findAllAccount(): List&amp;lt;Account&amp;gt;&lt;br&gt;+ findAccountById(int id): Account&lt;br&gt;+ saveAccount(Account account):void&lt;br&gt;+deleteAccount(int id) : void&lt;/p&gt;&lt;p style=&quot;margin:0px;margin-left:4px;&quot;&gt;&lt;br&gt;&lt;/p&gt;" style="verticalAlign=top;align=left;overflow=fill;fontSize=12;fontFamily=Helvetica;html=1;whiteSpace=wrap;" parent="1" vertex="1">
          <mxGeometry x="41" y="3522" width="240" height="110" as="geometry" />
        </mxCell>
        <mxCell id="QKt5LQErIS5qsYVif_62-340" value="&lt;p style=&quot;margin:0px;margin-top:4px;text-align:center;&quot;&gt;&lt;b&gt;AccountController&lt;/b&gt;&lt;/p&gt;&lt;hr size=&quot;1&quot;&gt;&lt;p style=&quot;margin:0px;margin-left:4px;&quot;&gt;- accountService : IAccountService&lt;/p&gt;&lt;hr size=&quot;1&quot;&gt;&lt;p style=&quot;margin:0px;margin-left:4px;&quot;&gt;+ getAllAccount() : List&amp;lt;Account&amp;gt;&lt;br&gt;+ getAccount(): Account&lt;br&gt;+ register(Account account) :void&lt;br&gt;+ editAccount(Account account) : void&lt;br&gt;+ deleteAccount(int id) : void&lt;br&gt;&lt;br&gt;&lt;/p&gt;" style="verticalAlign=top;align=left;overflow=fill;fontSize=12;fontFamily=Helvetica;html=1;whiteSpace=wrap;" parent="1" vertex="1">
          <mxGeometry x="40" y="3310" width="240" height="150" as="geometry" />
        </mxCell>
        <mxCell id="QKt5LQErIS5qsYVif_62-341" style="edgeStyle=orthogonalEdgeStyle;rounded=0;orthogonalLoop=1;jettySize=auto;html=1;exitX=0.5;exitY=1;exitDx=0;exitDy=0;" parent="1" source="QKt5LQErIS5qsYVif_62-340" target="QKt5LQErIS5qsYVif_62-340" edge="1">
          <mxGeometry relative="1" as="geometry" />
        </mxCell>
        <mxCell id="QKt5LQErIS5qsYVif_62-342" value="" style="endArrow=diamondThin;endFill=1;endSize=24;html=1;rounded=0;exitX=0.5;exitY=0;exitDx=0;exitDy=0;entryX=0.5;entryY=1;entryDx=0;entryDy=0;" parent="1" source="QKt5LQErIS5qsYVif_62-339" target="QKt5LQErIS5qsYVif_62-340" edge="1">
          <mxGeometry width="160" relative="1" as="geometry">
            <mxPoint x="160" y="3520" as="sourcePoint" />
            <mxPoint x="320" y="3520" as="targetPoint" />
          </mxGeometry>
        </mxCell>
        <mxCell id="QKt5LQErIS5qsYVif_62-344" value="owns" style="text;html=1;align=center;verticalAlign=middle;resizable=0;points=[];autosize=1;strokeColor=none;fillColor=none;" parent="1" vertex="1">
          <mxGeometry x="113" y="3492" width="50" height="30" as="geometry" />
        </mxCell>
        <mxCell id="QKt5LQErIS5qsYVif_62-345" value="AccountServiceImpl" style="swimlane;fontStyle=1;align=center;verticalAlign=top;childLayout=stackLayout;horizontal=1;startSize=26;horizontalStack=0;resizeParent=1;resizeParentMax=0;resizeLast=0;collapsible=1;marginBottom=0;whiteSpace=wrap;html=1;" parent="1" vertex="1">
          <mxGeometry x="43" y="3690" width="240" height="130" as="geometry">
            <mxRectangle x="40" y="3760" width="100" height="30" as="alternateBounds" />
          </mxGeometry>
        </mxCell>
        <mxCell id="QKt5LQErIS5qsYVif_62-346" value="- accountRepository : AccountRepository" style="text;strokeColor=none;fillColor=none;align=left;verticalAlign=top;spacingLeft=4;spacingRight=4;overflow=hidden;rotatable=0;points=[[0,0.5],[1,0.5]];portConstraint=eastwest;whiteSpace=wrap;html=1;" parent="QKt5LQErIS5qsYVif_62-345" vertex="1">
          <mxGeometry y="26" width="240" height="26" as="geometry" />
        </mxCell>
        <mxCell id="QKt5LQErIS5qsYVif_62-347" value="" style="line;strokeWidth=1;fillColor=none;align=left;verticalAlign=middle;spacingTop=-1;spacingLeft=3;spacingRight=3;rotatable=0;labelPosition=right;points=[];portConstraint=eastwest;strokeColor=inherit;" parent="QKt5LQErIS5qsYVif_62-345" vertex="1">
          <mxGeometry y="52" width="240" height="8" as="geometry" />
        </mxCell>
        <mxCell id="QKt5LQErIS5qsYVif_62-348" value="+ findAllAccount() : List&amp;lt;Account&amp;gt;&lt;br&gt;+ findAccountById(int id) : Account&lt;br&gt;+ saveAccount(Account account) : void&lt;br&gt;+ deleteAccount(int id): void" style="text;strokeColor=none;fillColor=none;align=left;verticalAlign=top;spacingLeft=4;spacingRight=4;overflow=hidden;rotatable=0;points=[[0,0.5],[1,0.5]];portConstraint=eastwest;whiteSpace=wrap;html=1;" parent="QKt5LQErIS5qsYVif_62-345" vertex="1">
          <mxGeometry y="60" width="240" height="70" as="geometry" />
        </mxCell>
        <mxCell id="QKt5LQErIS5qsYVif_62-350" value="realizes" style="text;html=1;align=center;verticalAlign=middle;resizable=0;points=[];autosize=1;strokeColor=none;fillColor=none;" parent="1" vertex="1">
          <mxGeometry x="108" y="3655" width="60" height="30" as="geometry" />
        </mxCell>
        <mxCell id="QKt5LQErIS5qsYVif_62-351" value="" style="endArrow=open;endSize=12;dashed=1;html=1;rounded=0;entryX=0;entryY=0.568;entryDx=0;entryDy=0;entryPerimeter=0;" parent="1" target="QKt5LQErIS5qsYVif_62-332" edge="1">
          <mxGeometry width="160" relative="1" as="geometry">
            <mxPoint x="280" y="3580" as="sourcePoint" />
            <mxPoint x="360" y="3580" as="targetPoint" />
          </mxGeometry>
        </mxCell>
        <mxCell id="QKt5LQErIS5qsYVif_62-352" value="uses" style="text;html=1;align=center;verticalAlign=middle;resizable=0;points=[];autosize=1;strokeColor=none;fillColor=none;" parent="1" vertex="1">
          <mxGeometry x="315" y="3550" width="50" height="30" as="geometry" />
        </mxCell>
        <mxCell id="QKt5LQErIS5qsYVif_62-355" value="" style="endArrow=open;endSize=12;dashed=1;html=1;rounded=0;exitX=0.997;exitY=0.255;exitDx=0;exitDy=0;exitPerimeter=0;entryX=0.01;entryY=0.305;entryDx=0;entryDy=0;entryPerimeter=0;" parent="1" source="QKt5LQErIS5qsYVif_62-348" target="QKt5LQErIS5qsYVif_62-334" edge="1">
          <mxGeometry width="160" relative="1" as="geometry">
            <mxPoint x="285" y="3780" as="sourcePoint" />
            <mxPoint x="410" y="3778" as="targetPoint" />
          </mxGeometry>
        </mxCell>
        <mxCell id="QKt5LQErIS5qsYVif_62-356" value="&lt;span style=&quot;color: rgb(240, 240, 240); font-family: Helvetica; font-size: 12px; font-style: normal; font-variant-ligatures: normal; font-variant-caps: normal; font-weight: 400; letter-spacing: normal; orphans: 2; text-align: center; text-indent: 0px; text-transform: none; widows: 2; word-spacing: 0px; -webkit-text-stroke-width: 0px; background-color: rgb(42, 37, 47); text-decoration-thickness: initial; text-decoration-style: initial; text-decoration-color: initial; float: none; display: inline !important;&quot;&gt;uses&lt;/span&gt;" style="text;whiteSpace=wrap;html=1;" parent="1" vertex="1">
          <mxGeometry x="323" y="3740" width="60" height="40" as="geometry" />
        </mxCell>
        <mxCell id="QKt5LQErIS5qsYVif_62-357" value="&lt;p style=&quot;margin:0px;margin-top:4px;text-align:center;&quot;&gt;&lt;i&gt;&amp;lt;&amp;lt;Interface&amp;gt;&amp;gt;&lt;b&gt;&lt;br&gt;&lt;/b&gt;&lt;/i&gt;&lt;b&gt;AccountRepository&amp;lt;Account,Integer&amp;gt;&lt;/b&gt;&lt;/p&gt;&lt;p style=&quot;margin:0px;margin-left:4px;&quot;&gt;&lt;br&gt;&lt;/p&gt;" style="verticalAlign=top;align=left;overflow=fill;fontSize=12;fontFamily=Helvetica;html=1;whiteSpace=wrap;" parent="1" vertex="1">
          <mxGeometry x="38" y="3880" width="240" height="110" as="geometry" />
        </mxCell>
        <mxCell id="QKt5LQErIS5qsYVif_62-358" value="" style="endArrow=none;html=1;rounded=0;exitX=0.003;exitY=0.322;exitDx=0;exitDy=0;exitPerimeter=0;entryX=1.009;entryY=0.332;entryDx=0;entryDy=0;entryPerimeter=0;" parent="1" source="QKt5LQErIS5qsYVif_62-357" target="QKt5LQErIS5qsYVif_62-357" edge="1">
          <mxGeometry width="50" height="50" relative="1" as="geometry">
            <mxPoint x="138" y="3920" as="sourcePoint" />
            <mxPoint x="188" y="3870" as="targetPoint" />
          </mxGeometry>
        </mxCell>
        <mxCell id="QKt5LQErIS5qsYVif_62-359" value="" style="endArrow=diamondThin;endFill=1;endSize=24;html=1;rounded=0;exitX=0.5;exitY=0;exitDx=0;exitDy=0;entryX=0.485;entryY=1.003;entryDx=0;entryDy=0;entryPerimeter=0;" parent="1" source="QKt5LQErIS5qsYVif_62-357" target="QKt5LQErIS5qsYVif_62-348" edge="1">
          <mxGeometry width="160" relative="1" as="geometry">
            <mxPoint x="218" y="3849" as="sourcePoint" />
            <mxPoint x="378" y="3849" as="targetPoint" />
          </mxGeometry>
        </mxCell>
        <mxCell id="QKt5LQErIS5qsYVif_62-360" value="owns" style="text;html=1;align=center;verticalAlign=middle;resizable=0;points=[];autosize=1;strokeColor=none;fillColor=none;" parent="1" vertex="1">
          <mxGeometry x="113" y="3850" width="50" height="30" as="geometry" />
        </mxCell>
        <mxCell id="QKt5LQErIS5qsYVif_62-364" value="" style="endArrow=open;endSize=12;dashed=1;html=1;rounded=0;exitX=0.997;exitY=0.139;exitDx=0;exitDy=0;exitPerimeter=0;entryX=0.013;entryY=0.869;entryDx=0;entryDy=0;entryPerimeter=0;" parent="1" source="QKt5LQErIS5qsYVif_62-357" target="QKt5LQErIS5qsYVif_62-334" edge="1">
          <mxGeometry width="160" relative="1" as="geometry">
            <mxPoint x="293" y="3900" as="sourcePoint" />
            <mxPoint x="453" y="3900" as="targetPoint" />
          </mxGeometry>
        </mxCell>
        <mxCell id="QKt5LQErIS5qsYVif_62-365" value="&lt;span style=&quot;color: rgb(240, 240, 240); font-family: Helvetica; font-size: 12px; font-style: normal; font-variant-ligatures: normal; font-variant-caps: normal; font-weight: 400; letter-spacing: normal; orphans: 2; text-align: center; text-indent: 0px; text-transform: none; widows: 2; word-spacing: 0px; -webkit-text-stroke-width: 0px; background-color: rgb(42, 37, 47); text-decoration-thickness: initial; text-decoration-style: initial; text-decoration-color: initial; float: none; display: inline !important;&quot;&gt;uses&lt;/span&gt;" style="text;whiteSpace=wrap;html=1;" parent="1" vertex="1">
          <mxGeometry x="318" y="3870" width="60" height="40" as="geometry" />
        </mxCell>
        <mxCell id="QKt5LQErIS5qsYVif_62-366" value="&lt;p style=&quot;margin:0px;margin-top:4px;text-align:center;&quot;&gt;&lt;i&gt;&amp;lt;&amp;lt;Interface&amp;gt;&amp;gt;&lt;/i&gt;&lt;br&gt;&lt;b&gt;JpaRepository&lt;/b&gt;&lt;/p&gt;&lt;hr size=&quot;1&quot;&gt;&lt;p style=&quot;margin:0px;margin-left:4px;&quot;&gt;&lt;br&gt;&lt;/p&gt;&lt;p style=&quot;margin:0px;margin-left:4px;&quot;&gt;&lt;br&gt;&lt;/p&gt;" style="verticalAlign=top;align=left;overflow=fill;fontSize=12;fontFamily=Helvetica;html=1;whiteSpace=wrap;" parent="1" vertex="1">
          <mxGeometry x="388" y="4060" width="190" height="70" as="geometry" />
        </mxCell>
        <mxCell id="QKt5LQErIS5qsYVif_62-367" value="" style="endArrow=block;endSize=16;endFill=0;html=1;rounded=0;exitX=0.569;exitY=1.011;exitDx=0;exitDy=0;exitPerimeter=0;entryX=0;entryY=0;entryDx=0;entryDy=0;" parent="1" source="QKt5LQErIS5qsYVif_62-357" target="QKt5LQErIS5qsYVif_62-366" edge="1">
          <mxGeometry width="160" relative="1" as="geometry">
            <mxPoint x="193" y="4044.66" as="sourcePoint" />
            <mxPoint x="353" y="4044.66" as="targetPoint" />
          </mxGeometry>
        </mxCell>
        <mxCell id="WL6VqEPVw5pHVpMwfatw-2" value="C08 Cinema System" style="text;html=1;align=center;verticalAlign=middle;whiteSpace=wrap;rounded=0;" parent="1" vertex="1">
          <mxGeometry x="409.5" y="70" width="147" height="50" as="geometry" />
        </mxCell>
        <mxCell id="WL6VqEPVw5pHVpMwfatw-3" value="&lt;span style=&quot;color: rgb(240, 240, 240); font-family: Helvetica; font-style: normal; font-variant-ligatures: normal; font-variant-caps: normal; font-weight: 400; letter-spacing: normal; orphans: 2; text-align: center; text-indent: 0px; text-transform: none; widows: 2; word-spacing: 0px; -webkit-text-stroke-width: 0px; background-color: rgb(27, 29, 30); text-decoration-thickness: initial; text-decoration-style: initial; text-decoration-color: initial; float: none; display: inline !important;&quot;&gt;&lt;font style=&quot;font-size: 18px;&quot;&gt;C08 Cinema System&lt;/font&gt;&lt;/span&gt;" style="text;whiteSpace=wrap;html=1;" parent="1" vertex="1">
          <mxGeometry x="409.5" y="810" width="184.5" height="60" as="geometry" />
        </mxCell>
        <mxCell id="WL6VqEPVw5pHVpMwfatw-5" value="is" style="text;html=1;align=center;verticalAlign=middle;whiteSpace=wrap;rounded=0;" parent="1" vertex="1">
          <mxGeometry x="278" y="4010" width="60" height="30" as="geometry" />
        </mxCell>
        <mxCell id="WL6VqEPVw5pHVpMwfatw-6" value="Role" style="swimlane;fontStyle=1;align=center;verticalAlign=top;childLayout=stackLayout;horizontal=1;startSize=26;horizontalStack=0;resizeParent=1;resizeParentMax=0;resizeLast=0;collapsible=1;marginBottom=0;whiteSpace=wrap;html=1;" parent="1" vertex="1">
          <mxGeometry x="645" y="3513" width="160" height="104" as="geometry" />
        </mxCell>
        <mxCell id="WL6VqEPVw5pHVpMwfatw-7" value="-&amp;nbsp; id : int&amp;nbsp;&lt;br&gt;- name : String" style="text;strokeColor=none;fillColor=none;align=left;verticalAlign=top;spacingLeft=4;spacingRight=4;overflow=hidden;rotatable=0;points=[[0,0.5],[1,0.5]];portConstraint=eastwest;whiteSpace=wrap;html=1;" parent="WL6VqEPVw5pHVpMwfatw-6" vertex="1">
          <mxGeometry y="26" width="160" height="44" as="geometry" />
        </mxCell>
        <mxCell id="WL6VqEPVw5pHVpMwfatw-8" value="" style="line;strokeWidth=1;fillColor=none;align=left;verticalAlign=middle;spacingTop=-1;spacingLeft=3;spacingRight=3;rotatable=0;labelPosition=right;points=[];portConstraint=eastwest;strokeColor=inherit;" parent="WL6VqEPVw5pHVpMwfatw-6" vertex="1">
          <mxGeometry y="70" width="160" height="8" as="geometry" />
        </mxCell>
        <mxCell id="WL6VqEPVw5pHVpMwfatw-9" value="+ getter/setter" style="text;strokeColor=none;fillColor=none;align=left;verticalAlign=top;spacingLeft=4;spacingRight=4;overflow=hidden;rotatable=0;points=[[0,0.5],[1,0.5]];portConstraint=eastwest;whiteSpace=wrap;html=1;" parent="WL6VqEPVw5pHVpMwfatw-6" vertex="1">
          <mxGeometry y="78" width="160" height="26" as="geometry" />
        </mxCell>
        <mxCell id="WL6VqEPVw5pHVpMwfatw-10" value="" style="endArrow=diamondThin;endFill=0;endSize=24;html=1;rounded=0;exitX=0;exitY=0.5;exitDx=0;exitDy=0;entryX=1;entryY=0.5;entryDx=0;entryDy=0;" parent="1" source="WL6VqEPVw5pHVpMwfatw-7" target="QKt5LQErIS5qsYVif_62-332" edge="1">
          <mxGeometry width="160" relative="1" as="geometry">
            <mxPoint x="628" y="3730" as="sourcePoint" />
            <mxPoint x="788" y="3730" as="targetPoint" />
          </mxGeometry>
        </mxCell>
        <mxCell id="WL6VqEPVw5pHVpMwfatw-11" value="has" style="text;html=1;align=center;verticalAlign=middle;whiteSpace=wrap;rounded=0;" parent="1" vertex="1">
          <mxGeometry x="590" y="3540" width="60" height="30" as="geometry" />
        </mxCell>
        <mxCell id="WL6VqEPVw5pHVpMwfatw-13" value="" style="endArrow=block;dashed=1;endFill=0;endSize=12;html=1;rounded=0;exitX=0.5;exitY=0;exitDx=0;exitDy=0;entryX=0.5;entryY=1;entryDx=0;entryDy=0;" parent="1" source="QKt5LQErIS5qsYVif_62-345" target="QKt5LQErIS5qsYVif_62-339" edge="1">
          <mxGeometry width="160" relative="1" as="geometry">
            <mxPoint x="230" y="3660" as="sourcePoint" />
            <mxPoint x="390" y="3660" as="targetPoint" />
          </mxGeometry>
        </mxCell>
        <mxCell id="WL6VqEPVw5pHVpMwfatw-14" value="" style="endArrow=open;endSize=12;dashed=1;html=1;rounded=0;entryX=-0.005;entryY=0.158;entryDx=0;entryDy=0;entryPerimeter=0;exitX=1;exitY=0.75;exitDx=0;exitDy=0;" parent="1" source="QKt5LQErIS5qsYVif_62-340" target="QKt5LQErIS5qsYVif_62-332" edge="1">
          <mxGeometry width="160" relative="1" as="geometry">
            <mxPoint x="305" y="3370" as="sourcePoint" />
            <mxPoint x="430" y="3370" as="targetPoint" />
          </mxGeometry>
        </mxCell>
        <mxCell id="WL6VqEPVw5pHVpMwfatw-15" value="&lt;p style=&quot;margin:0px;margin-top:4px;text-align:center;&quot;&gt;&lt;i&gt;&amp;lt;&amp;lt;Interface&amp;gt;&amp;gt;&lt;b&gt;&lt;br&gt;&lt;/b&gt;&lt;/i&gt;&lt;b&gt;IRoleService&lt;/b&gt;&lt;/p&gt;&lt;p style=&quot;margin:0px;margin-left:4px;&quot;&gt;+ findAllRole(): List&amp;lt;Role&amp;gt;&lt;br&gt;+ findRoleById(int id): Role&lt;br&gt;+ saveRole(Role role):void&lt;br&gt;+deleteRoleById(int id) : void&lt;/p&gt;&lt;p style=&quot;margin:0px;margin-left:4px;&quot;&gt;&lt;br&gt;&lt;/p&gt;" style="verticalAlign=top;align=left;overflow=fill;fontSize=12;fontFamily=Helvetica;html=1;whiteSpace=wrap;" parent="1" vertex="1">
          <mxGeometry x="893" y="3513" width="240" height="110" as="geometry" />
        </mxCell>
        <mxCell id="WL6VqEPVw5pHVpMwfatw-16" value="&lt;p style=&quot;margin:0px;margin-top:4px;text-align:center;&quot;&gt;&lt;b&gt;RoleController&lt;/b&gt;&lt;/p&gt;&lt;hr size=&quot;1&quot;&gt;&lt;p style=&quot;margin:0px;margin-left:4px;&quot;&gt;- RoleService: IRoleService&lt;/p&gt;&lt;hr size=&quot;1&quot;&gt;&lt;p style=&quot;margin:0px;margin-left:4px;&quot;&gt;+ getAllRole() : List&amp;lt;Role&amp;gt;&lt;br&gt;+ getRole(): Role&lt;br&gt;+ save(Role role) :void&lt;br&gt;+ editRole(Role role) : void&lt;br&gt;+ deleteRoleById(int id) : void&lt;br&gt;&lt;br&gt;&lt;/p&gt;" style="verticalAlign=top;align=left;overflow=fill;fontSize=12;fontFamily=Helvetica;html=1;whiteSpace=wrap;" parent="1" vertex="1">
          <mxGeometry x="893" y="3310" width="240" height="150" as="geometry" />
        </mxCell>
        <mxCell id="WL6VqEPVw5pHVpMwfatw-17" style="edgeStyle=orthogonalEdgeStyle;rounded=0;orthogonalLoop=1;jettySize=auto;html=1;exitX=0.5;exitY=1;exitDx=0;exitDy=0;" parent="1" source="WL6VqEPVw5pHVpMwfatw-16" target="WL6VqEPVw5pHVpMwfatw-16" edge="1">
          <mxGeometry relative="1" as="geometry" />
        </mxCell>
        <mxCell id="WL6VqEPVw5pHVpMwfatw-18" value="" style="endArrow=diamondThin;endFill=1;endSize=24;html=1;rounded=0;exitX=0.5;exitY=0;exitDx=0;exitDy=0;entryX=0.5;entryY=1;entryDx=0;entryDy=0;" parent="1" source="WL6VqEPVw5pHVpMwfatw-15" target="WL6VqEPVw5pHVpMwfatw-16" edge="1">
          <mxGeometry width="160" relative="1" as="geometry">
            <mxPoint x="1012" y="3580" as="sourcePoint" />
            <mxPoint x="1172" y="3580" as="targetPoint" />
          </mxGeometry>
        </mxCell>
        <mxCell id="WL6VqEPVw5pHVpMwfatw-19" value="owns" style="text;html=1;align=center;verticalAlign=middle;resizable=0;points=[];autosize=1;strokeColor=none;fillColor=none;" parent="1" vertex="1">
          <mxGeometry x="950" y="3483" width="50" height="30" as="geometry" />
        </mxCell>
        <mxCell id="WL6VqEPVw5pHVpMwfatw-20" value="RoleServiceImpl" style="swimlane;fontStyle=1;align=center;verticalAlign=top;childLayout=stackLayout;horizontal=1;startSize=26;horizontalStack=0;resizeParent=1;resizeParentMax=0;resizeLast=0;collapsible=1;marginBottom=0;whiteSpace=wrap;html=1;" parent="1" vertex="1">
          <mxGeometry x="893" y="3680" width="240" height="130" as="geometry">
            <mxRectangle x="40" y="3760" width="100" height="30" as="alternateBounds" />
          </mxGeometry>
        </mxCell>
        <mxCell id="WL6VqEPVw5pHVpMwfatw-21" value="- roleRepository : RoleRepository" style="text;strokeColor=none;fillColor=none;align=left;verticalAlign=top;spacingLeft=4;spacingRight=4;overflow=hidden;rotatable=0;points=[[0,0.5],[1,0.5]];portConstraint=eastwest;whiteSpace=wrap;html=1;" parent="WL6VqEPVw5pHVpMwfatw-20" vertex="1">
          <mxGeometry y="26" width="240" height="26" as="geometry" />
        </mxCell>
        <mxCell id="WL6VqEPVw5pHVpMwfatw-22" value="" style="line;strokeWidth=1;fillColor=none;align=left;verticalAlign=middle;spacingTop=-1;spacingLeft=3;spacingRight=3;rotatable=0;labelPosition=right;points=[];portConstraint=eastwest;strokeColor=inherit;" parent="WL6VqEPVw5pHVpMwfatw-20" vertex="1">
          <mxGeometry y="52" width="240" height="8" as="geometry" />
        </mxCell>
        <mxCell id="WL6VqEPVw5pHVpMwfatw-23" value="+ findAllRole() : List&amp;lt;Role&amp;gt;&lt;br&gt;+ findRoleById(int id) : Role&lt;br&gt;+ saveRole(Role role) : void&lt;br&gt;+ deleteRole(int id): void" style="text;strokeColor=none;fillColor=none;align=left;verticalAlign=top;spacingLeft=4;spacingRight=4;overflow=hidden;rotatable=0;points=[[0,0.5],[1,0.5]];portConstraint=eastwest;whiteSpace=wrap;html=1;" parent="WL6VqEPVw5pHVpMwfatw-20" vertex="1">
          <mxGeometry y="60" width="240" height="70" as="geometry" />
        </mxCell>
        <mxCell id="WL6VqEPVw5pHVpMwfatw-24" value="realizes" style="text;html=1;align=center;verticalAlign=middle;resizable=0;points=[];autosize=1;strokeColor=none;fillColor=none;" parent="1" vertex="1">
          <mxGeometry x="955" y="3640" width="60" height="30" as="geometry" />
        </mxCell>
        <mxCell id="WL6VqEPVw5pHVpMwfatw-25" value="&lt;p style=&quot;margin:0px;margin-top:4px;text-align:center;&quot;&gt;&lt;i&gt;&amp;lt;&amp;lt;Interface&amp;gt;&amp;gt;&lt;b&gt;&lt;br&gt;&lt;/b&gt;&lt;/i&gt;&lt;b&gt;RoleRepository&amp;lt;Role,Integer&amp;gt;&lt;/b&gt;&lt;/p&gt;&lt;p style=&quot;margin:0px;margin-left:4px;&quot;&gt;&lt;br&gt;&lt;/p&gt;" style="verticalAlign=top;align=left;overflow=fill;fontSize=12;fontFamily=Helvetica;html=1;whiteSpace=wrap;" parent="1" vertex="1">
          <mxGeometry x="893" y="3865" width="240" height="110" as="geometry" />
        </mxCell>
        <mxCell id="WL6VqEPVw5pHVpMwfatw-26" value="" style="endArrow=none;html=1;rounded=0;exitX=0.003;exitY=0.322;exitDx=0;exitDy=0;exitPerimeter=0;entryX=1.009;entryY=0.332;entryDx=0;entryDy=0;entryPerimeter=0;" parent="1" source="WL6VqEPVw5pHVpMwfatw-25" target="WL6VqEPVw5pHVpMwfatw-25" edge="1">
          <mxGeometry width="50" height="50" relative="1" as="geometry">
            <mxPoint x="990" y="3980" as="sourcePoint" />
            <mxPoint x="1040" y="3930" as="targetPoint" />
          </mxGeometry>
        </mxCell>
        <mxCell id="WL6VqEPVw5pHVpMwfatw-27" value="" style="endArrow=diamondThin;endFill=1;endSize=24;html=1;rounded=0;exitX=0.5;exitY=0;exitDx=0;exitDy=0;entryX=0.485;entryY=1.003;entryDx=0;entryDy=0;entryPerimeter=0;" parent="1" source="WL6VqEPVw5pHVpMwfatw-25" target="WL6VqEPVw5pHVpMwfatw-23" edge="1">
          <mxGeometry width="160" relative="1" as="geometry">
            <mxPoint x="1070" y="3909" as="sourcePoint" />
            <mxPoint x="1230" y="3909" as="targetPoint" />
          </mxGeometry>
        </mxCell>
        <mxCell id="WL6VqEPVw5pHVpMwfatw-28" value="owns" style="text;html=1;align=center;verticalAlign=middle;resizable=0;points=[];autosize=1;strokeColor=none;fillColor=none;" parent="1" vertex="1">
          <mxGeometry x="965" y="3835" width="50" height="30" as="geometry" />
        </mxCell>
        <mxCell id="WL6VqEPVw5pHVpMwfatw-29" value="" style="endArrow=block;dashed=1;endFill=0;endSize=12;html=1;rounded=0;exitX=0.5;exitY=0;exitDx=0;exitDy=0;entryX=0.5;entryY=1;entryDx=0;entryDy=0;" parent="1" source="WL6VqEPVw5pHVpMwfatw-20" target="WL6VqEPVw5pHVpMwfatw-15" edge="1">
          <mxGeometry width="160" relative="1" as="geometry">
            <mxPoint x="1082" y="3720" as="sourcePoint" />
            <mxPoint x="1242" y="3720" as="targetPoint" />
          </mxGeometry>
        </mxCell>
        <mxCell id="WL6VqEPVw5pHVpMwfatw-30" value="" style="endArrow=block;endSize=16;endFill=0;html=1;rounded=0;exitX=0.454;exitY=1;exitDx=0;exitDy=0;entryX=1;entryY=0;entryDx=0;entryDy=0;exitPerimeter=0;" parent="1" source="WL6VqEPVw5pHVpMwfatw-25" target="QKt5LQErIS5qsYVif_62-366" edge="1">
          <mxGeometry width="160" relative="1" as="geometry">
            <mxPoint x="650" y="4050" as="sourcePoint" />
            <mxPoint x="863" y="4119" as="targetPoint" />
          </mxGeometry>
        </mxCell>
        <mxCell id="WL6VqEPVw5pHVpMwfatw-31" value="uses" style="text;html=1;align=center;verticalAlign=middle;resizable=0;points=[];autosize=1;strokeColor=none;fillColor=none;" parent="1" vertex="1">
          <mxGeometry x="323" y="3420" width="50" height="30" as="geometry" />
        </mxCell>
        <mxCell id="WL6VqEPVw5pHVpMwfatw-32" value="" style="endArrow=open;endSize=12;dashed=1;html=1;rounded=0;entryX=0.75;entryY=0;entryDx=0;entryDy=0;exitX=0.003;exitY=0.575;exitDx=0;exitDy=0;exitPerimeter=0;" parent="1" source="WL6VqEPVw5pHVpMwfatw-16" target="WL6VqEPVw5pHVpMwfatw-6" edge="1">
          <mxGeometry width="160" relative="1" as="geometry">
            <mxPoint x="700" y="3440" as="sourcePoint" />
            <mxPoint x="825" y="3440" as="targetPoint" />
          </mxGeometry>
        </mxCell>
        <mxCell id="WL6VqEPVw5pHVpMwfatw-33" value="" style="endArrow=open;endSize=12;dashed=1;html=1;rounded=0;exitX=0;exitY=0.25;exitDx=0;exitDy=0;entryX=1;entryY=0.5;entryDx=0;entryDy=0;" parent="1" source="WL6VqEPVw5pHVpMwfatw-15" target="WL6VqEPVw5pHVpMwfatw-7" edge="1">
          <mxGeometry width="160" relative="1" as="geometry">
            <mxPoint x="710" y="3720" as="sourcePoint" />
            <mxPoint x="835" y="3720" as="targetPoint" />
          </mxGeometry>
        </mxCell>
        <mxCell id="WL6VqEPVw5pHVpMwfatw-34" value="" style="endArrow=open;endSize=12;dashed=1;html=1;rounded=0;entryX=0.981;entryY=1.059;entryDx=0;entryDy=0;entryPerimeter=0;exitX=0;exitY=0.5;exitDx=0;exitDy=0;" parent="1" source="WL6VqEPVw5pHVpMwfatw-23" target="WL6VqEPVw5pHVpMwfatw-9" edge="1">
          <mxGeometry width="160" relative="1" as="geometry">
            <mxPoint x="715" y="3759.41" as="sourcePoint" />
            <mxPoint x="840" y="3759.41" as="targetPoint" />
          </mxGeometry>
        </mxCell>
        <mxCell id="WL6VqEPVw5pHVpMwfatw-35" value="" style="endArrow=open;endSize=12;dashed=1;html=1;rounded=0;entryX=0.594;entryY=1.115;entryDx=0;entryDy=0;entryPerimeter=0;exitX=0;exitY=0;exitDx=0;exitDy=0;" parent="1" source="WL6VqEPVw5pHVpMwfatw-25" target="WL6VqEPVw5pHVpMwfatw-9" edge="1">
          <mxGeometry width="160" relative="1" as="geometry">
            <mxPoint x="660" y="3849" as="sourcePoint" />
            <mxPoint x="785" y="3849" as="targetPoint" />
          </mxGeometry>
        </mxCell>
        <mxCell id="WL6VqEPVw5pHVpMwfatw-36" value="uses" style="text;html=1;align=center;verticalAlign=middle;resizable=0;points=[];autosize=1;strokeColor=none;fillColor=none;" parent="1" vertex="1">
          <mxGeometry x="790" y="3430" width="50" height="30" as="geometry" />
        </mxCell>
        <mxCell id="WL6VqEPVw5pHVpMwfatw-37" value="uses" style="text;html=1;align=center;verticalAlign=middle;resizable=0;points=[];autosize=1;strokeColor=none;fillColor=none;" parent="1" vertex="1">
          <mxGeometry x="825" y="3522" width="50" height="30" as="geometry" />
        </mxCell>
        <mxCell id="WL6VqEPVw5pHVpMwfatw-38" value="uses" style="text;html=1;align=center;verticalAlign=middle;resizable=0;points=[];autosize=1;strokeColor=none;fillColor=none;" parent="1" vertex="1">
          <mxGeometry x="840" y="3680" width="50" height="30" as="geometry" />
        </mxCell>
        <mxCell id="WL6VqEPVw5pHVpMwfatw-39" value="uses" style="text;html=1;align=center;verticalAlign=middle;resizable=0;points=[];autosize=1;strokeColor=none;fillColor=none;" parent="1" vertex="1">
          <mxGeometry x="780" y="3750" width="50" height="30" as="geometry" />
        </mxCell>
        <mxCell id="WL6VqEPVw5pHVpMwfatw-40" value="is" style="text;html=1;align=center;verticalAlign=middle;whiteSpace=wrap;rounded=0;" parent="1" vertex="1">
          <mxGeometry x="695" y="4000" width="60" height="30" as="geometry" />
        </mxCell>
        <mxCell id="WL6VqEPVw5pHVpMwfatw-41" value="" style="endArrow=classic;html=1;rounded=0;exitX=0.964;exitY=0.243;exitDx=0;exitDy=0;entryX=0.01;entryY=0.223;entryDx=0;entryDy=0;entryPerimeter=0;exitPerimeter=0;" parent="1" edge="1">
          <mxGeometry width="50" height="50" relative="1" as="geometry">
            <mxPoint x="425" y="1916" as="sourcePoint" />
            <mxPoint x="581" y="1915" as="targetPoint" />
          </mxGeometry>
        </mxCell>
        <mxCell id="WL6VqEPVw5pHVpMwfatw-43" value="" style="endArrow=none;dashed=1;html=1;rounded=0;" parent="1" target="WL6VqEPVw5pHVpMwfatw-42" edge="1">
          <mxGeometry width="50" height="50" relative="1" as="geometry">
            <mxPoint x="-20" y="1900" as="sourcePoint" />
            <mxPoint x="1086.6666666666667" y="1900" as="targetPoint" />
          </mxGeometry>
        </mxCell>
        <mxCell id="WL6VqEPVw5pHVpMwfatw-42" value="5. saveAccount()" style="text;html=1;align=center;verticalAlign=middle;resizable=0;points=[];autosize=1;strokeColor=none;fillColor=none;" parent="1" vertex="1">
          <mxGeometry x="440" y="1885" width="110" height="30" as="geometry" />
        </mxCell>
        <mxCell id="WL6VqEPVw5pHVpMwfatw-45" value="" style="endArrow=classic;html=1;rounded=0;exitX=0.964;exitY=0.243;exitDx=0;exitDy=0;entryX=0.01;entryY=0.223;entryDx=0;entryDy=0;entryPerimeter=0;exitPerimeter=0;" parent="1" edge="1">
          <mxGeometry width="50" height="50" relative="1" as="geometry">
            <mxPoint x="414" y="2523.41" as="sourcePoint" />
            <mxPoint x="570" y="2522.41" as="targetPoint" />
          </mxGeometry>
        </mxCell>
        <mxCell id="WL6VqEPVw5pHVpMwfatw-48" value="" style="endArrow=none;dashed=1;html=1;rounded=0;" parent="1" target="WL6VqEPVw5pHVpMwfatw-46" edge="1">
          <mxGeometry width="50" height="50" relative="1" as="geometry">
            <mxPoint x="-30" y="2518" as="sourcePoint" />
            <mxPoint x="1163" y="2508" as="targetPoint" />
          </mxGeometry>
        </mxCell>
        <mxCell id="WL6VqEPVw5pHVpMwfatw-46" value="5. editAccount()" style="text;html=1;align=center;verticalAlign=middle;resizable=0;points=[];autosize=1;strokeColor=none;fillColor=none;" parent="1" vertex="1">
          <mxGeometry x="440" y="2495" width="110" height="30" as="geometry" />
        </mxCell>
        <mxCell id="WL6VqEPVw5pHVpMwfatw-49" value="3.getAccount()" style="text;html=1;align=center;verticalAlign=middle;resizable=0;points=[];autosize=1;strokeColor=none;fillColor=none;" parent="1" vertex="1">
          <mxGeometry x="367.5" y="2858" width="100" height="30" as="geometry" />
        </mxCell>
        <mxCell id="WL6VqEPVw5pHVpMwfatw-52" value="" style="endArrow=classic;html=1;rounded=0;entryX=-0.1;entryY=0.051;entryDx=0;entryDy=0;exitX=0.98;exitY=0.287;exitDx=0;exitDy=0;exitPerimeter=0;entryPerimeter=0;" parent="1" target="QKt5LQErIS5qsYVif_62-228" edge="1">
          <mxGeometry width="50" height="50" relative="1" as="geometry">
            <mxPoint x="519.9999999999999" y="2910.3599999999997" as="sourcePoint" />
            <mxPoint x="675.4" y="2910" as="targetPoint" />
            <Array as="points" />
          </mxGeometry>
        </mxCell>
        <mxCell id="WL6VqEPVw5pHVpMwfatw-53" value="4.getAccount()" style="text;html=1;align=center;verticalAlign=middle;resizable=0;points=[];autosize=1;strokeColor=none;fillColor=none;" parent="1" vertex="1">
          <mxGeometry x="565" y="2888" width="100" height="30" as="geometry" />
        </mxCell>
        <mxCell id="WL6VqEPVw5pHVpMwfatw-54" value="" style="endArrow=classic;html=1;rounded=0;entryX=-0.129;entryY=0.064;entryDx=0;entryDy=0;exitX=1.1;exitY=0.136;exitDx=0;exitDy=0;exitPerimeter=0;entryPerimeter=0;" parent="1" source="QKt5LQErIS5qsYVif_62-228" target="QKt5LQErIS5qsYVif_62-229" edge="1">
          <mxGeometry width="50" height="50" relative="1" as="geometry">
            <mxPoint x="737.9999999999999" y="2929.9999999999995" as="sourcePoint" />
            <mxPoint x="914" y="2930.64" as="targetPoint" />
            <Array as="points" />
          </mxGeometry>
        </mxCell>
        <mxCell id="WL6VqEPVw5pHVpMwfatw-55" value="5.ExecuteQuery()" style="text;html=1;align=center;verticalAlign=middle;resizable=0;points=[];autosize=1;strokeColor=none;fillColor=none;" parent="1" vertex="1">
          <mxGeometry x="740" y="2900" width="120" height="30" as="geometry" />
        </mxCell>
        <mxCell id="QKt5LQErIS5qsYVif_62-255" value="8.Return result" style="text;html=1;align=center;verticalAlign=middle;resizable=0;points=[];autosize=1;strokeColor=none;fillColor=none;" parent="1" vertex="1">
          <mxGeometry x="740" y="3045" width="100" height="30" as="geometry" />
        </mxCell>
        <mxCell id="WL6VqEPVw5pHVpMwfatw-57" value="" style="endArrow=open;endSize=12;dashed=1;html=1;rounded=0;exitX=0;exitY=0.75;exitDx=0;exitDy=0;entryX=1;entryY=0.75;entryDx=0;entryDy=0;" parent="1" edge="1">
          <mxGeometry width="160" relative="1" as="geometry">
            <mxPoint x="868" y="2970" as="sourcePoint" />
            <mxPoint x="718" y="2971" as="targetPoint" />
          </mxGeometry>
        </mxCell>
        <mxCell id="WL6VqEPVw5pHVpMwfatw-58" value="6.Return null" style="text;html=1;align=center;verticalAlign=middle;resizable=0;points=[];autosize=1;strokeColor=none;fillColor=none;" parent="1" vertex="1">
          <mxGeometry x="745" y="2949" width="90" height="30" as="geometry" />
        </mxCell>
        <mxCell id="WL6VqEPVw5pHVpMwfatw-59" value="7.Return null" style="text;html=1;align=center;verticalAlign=middle;resizable=0;points=[];autosize=1;strokeColor=none;fillColor=none;" parent="1" vertex="1">
          <mxGeometry x="566.5" y="2970" width="90" height="30" as="geometry" />
        </mxCell>
        <mxCell id="WL6VqEPVw5pHVpMwfatw-60" value="" style="endArrow=open;endSize=12;dashed=1;html=1;rounded=0;exitX=0.058;exitY=0.398;exitDx=0;exitDy=0;entryX=1;entryY=0.75;entryDx=0;entryDy=0;exitPerimeter=0;" parent="1" source="QKt5LQErIS5qsYVif_62-228" edge="1">
          <mxGeometry width="160" relative="1" as="geometry">
            <mxPoint x="670" y="2990" as="sourcePoint" />
            <mxPoint x="520" y="2991" as="targetPoint" />
          </mxGeometry>
        </mxCell>
        <mxCell id="WL6VqEPVw5pHVpMwfatw-62" value="" style="endArrow=open;endSize=12;dashed=1;html=1;rounded=0;exitX=0.017;exitY=0.562;exitDx=0;exitDy=0;entryX=1;entryY=0.75;entryDx=0;entryDy=0;exitPerimeter=0;" parent="1" source="QKt5LQErIS5qsYVif_62-227" edge="1">
          <mxGeometry width="160" relative="1" as="geometry">
            <mxPoint x="522" y="3012" as="sourcePoint" />
            <mxPoint x="343" y="3013" as="targetPoint" />
          </mxGeometry>
        </mxCell>
        <mxCell id="WL6VqEPVw5pHVpMwfatw-63" value="8.Return null" style="text;html=1;align=center;verticalAlign=middle;resizable=0;points=[];autosize=1;strokeColor=none;fillColor=none;" parent="1" vertex="1">
          <mxGeometry x="385" y="2990" width="90" height="30" as="geometry" />
        </mxCell>
        <mxCell id="WL6VqEPVw5pHVpMwfatw-65" value="" style="endArrow=open;endSize=12;dashed=1;html=1;rounded=0;exitX=0.017;exitY=0.562;exitDx=0;exitDy=0;entryX=1;entryY=0.75;entryDx=0;entryDy=0;exitPerimeter=0;" parent="1" edge="1">
          <mxGeometry width="160" relative="1" as="geometry">
            <mxPoint x="323" y="3023" as="sourcePoint" />
            <mxPoint x="168" y="3023" as="targetPoint" />
          </mxGeometry>
        </mxCell>
        <mxCell id="WL6VqEPVw5pHVpMwfatw-66" value="&lt;span style=&quot;color: rgb(240, 240, 240); font-family: Helvetica; font-size: 12px; font-style: normal; font-variant-ligatures: normal; font-variant-caps: normal; font-weight: 400; letter-spacing: normal; orphans: 2; text-align: center; text-indent: 0px; text-transform: none; widows: 2; word-spacing: 0px; -webkit-text-stroke-width: 0px; background-color: rgb(27, 29, 30); text-decoration-thickness: initial; text-decoration-style: initial; text-decoration-color: initial; float: none; display: inline !important;&quot;&gt;8.Return not found&lt;/span&gt;" style="text;whiteSpace=wrap;html=1;" parent="1" vertex="1">
          <mxGeometry x="205" y="2992.5" width="110" height="40" as="geometry" />
        </mxCell>
      </root>
    </mxGraphModel>
  </diagram>
</mxfile>
